<?xml version="1.0" encoding="UTF-8" standalone="yes"?><svg xmlns="http://www.w3.org/2000/svg" xmlns:xlink="http://www.w3.org/1999/xlink" height="609pt" style="width:775px;height:609px;" version="1.1" viewBox="0 0 775 609" width="775pt"><defs><filter height="300%" id="f1" width="300%" x="-1" y="-1"><feGaussianBlur result="blurOut" stdDeviation="2.0"/><feColorMatrix in="blurOut" result="blurOut2" type="matrix" values="0 0 0 0 0 0 0 0 0 0 0 0 0 0 0 0 0 0 .4 0"/><feOffset dx="4.0" dy="4.0" in="blurOut2" result="blurOut3"/><feBlend in="SourceGraphic" in2="blurOut3" mode="normal"/></filter></defs><g><polygon fill="#FFFFFF" filter="url(#f1)" points="277,296,337,296,344,318.2969,694,318.2969,694,602,277,602,277,296" style="stroke: #000000; stroke-width: 2.0;"/><line style="stroke: #000000; stroke-width: 2.0;" x1="277" x2="344" y1="318.2969" y2="318.2969"/><text fill="#000000" font-family="sans-serif" font-size="14" font-weight="bold" lengthAdjust="spacingAndGlyphs" textLength="54" x="280" y="311.9951">engine</text><polygon fill="#FFFFFF" filter="url(#f1)" points="306,162,389,162,396,184.2969,466,184.2969,466,271,306,271,306,162" style="stroke: #000000; stroke-width: 2.0;"/><line style="stroke: #000000; stroke-width: 2.0;" x1="306" x2="396" y1="184.2969" y2="184.2969"/><text fill="#000000" font-family="sans-serif" font-size="14" font-weight="bold" lengthAdjust="spacingAndGlyphs" textLength="77" x="309" y="177.9951">controller</text><polygon fill="#FFFFFF" filter="url(#f1)" points="14,296,57,296,64,318.2969,258,318.2969,258,443,14,443,14,296" style="stroke: #000000; stroke-width: 2.0;"/><line style="stroke: #000000; stroke-width: 2.0;" x1="14" x2="64" y1="318.2969" y2="318.2969"/><text fill="#000000" font-family="sans-serif" font-size="14" font-weight="bold" lengthAdjust="spacingAndGlyphs" textLength="37" x="17" y="311.9951">view</text><polygon fill="#FFFFFF" filter="url(#f1)" points="71,16,125,16,132,38.2969,504,38.2969,504,137,71,137,71,16" style="stroke: #000000; stroke-width: 2.0;"/><line style="stroke: #000000; stroke-width: 2.0;" x1="71" x2="132" y1="38.2969" y2="38.2969"/><text fill="#000000" font-family="sans-serif" font-size="14" font-weight="bold" lengthAdjust="spacingAndGlyphs" textLength="48" x="74" y="31.9951">model</text><polygon fill="#FFFFFF" filter="url(#f1)" points="517,35,758,35,765,57.2969,768,57.2969,768,118,517,118,517,35" style="stroke: #000000; stroke-width: 2.0;"/><line style="stroke: #000000; stroke-width: 2.0;" x1="517" x2="765" y1="57.2969" y2="57.2969"/><text fill="#000000" font-family="sans-serif" font-size="14" font-weight="bold" lengthAdjust="spacingAndGlyphs" textLength="235" x="520" y="50.9951">springframework.web.servlet</text><rect fill="#FEFECE" filter="url(#f1)" height="99.2188" style="stroke: #A80036; stroke-width: 1.5;" width="295" x="390.5" y="495"/><ellipse cx="506.25" cy="511" fill="#ADD1B2" rx="11" ry="11" style="stroke: #A80036; stroke-width: 1.0;"/><path d="M509.2188,516.6406 Q508.6406,516.9375 508,517.0859 Q507.3594,517.2344 506.6563,517.2344 Q504.1563,517.2344 502.8359,515.5859 Q501.5156,513.9375 501.5156,510.8125 Q501.5156,507.6875 502.8359,506.0313 Q504.1563,504.375 506.6563,504.375 Q507.3594,504.375 508.0078,504.5313 Q508.6563,504.6875 509.2188,504.9844 L509.2188,507.7031 Q508.5938,507.125 508,506.8516 Q507.4063,506.5781 506.7813,506.5781 Q505.4375,506.5781 504.75,507.6484 Q504.0625,508.7188 504.0625,510.8125 Q504.0625,512.9063 504.75,513.9766 Q505.4375,515.0469 506.7813,515.0469 Q507.4063,515.0469 508,514.7734 Q508.5938,514.5 509.2188,513.9219 L509.2188,516.6406 Z "/><text fill="#000000" font-family="sans-serif" font-size="12" lengthAdjust="spacingAndGlyphs" textLength="55" x="526.75" y="515.1543">EngineIO</text><line style="stroke: #A80036; stroke-width: 1.5;" x1="391.5" x2="684.5" y1="527" y2="527"/><text fill="#000000" font-family="sans-serif" font-size="11" lengthAdjust="spacingAndGlyphs" textLength="131" x="396.5" y="541.2104">BufferedReader reader</text><text fill="#000000" font-family="sans-serif" font-size="11" lengthAdjust="spacingAndGlyphs" textLength="119" x="396.5" y="554.0151">BufferedWriter writer</text><text fill="#000000" font-family="sans-serif" font-size="11" lengthAdjust="spacingAndGlyphs" textLength="134" x="396.5" y="566.8198">Process engineProcess</text><text fill="#000000" font-family="sans-serif" font-size="11" lengthAdjust="spacingAndGlyphs" textLength="283" x="396.5" y="579.6245">ConcurrentLinkedDeque&lt;engine.StatusMessage&gt;</text><line style="stroke: #A80036; stroke-width: 1.5;" x1="391.5" x2="684.5" y1="586.2188" y2="586.2188"/><rect fill="#FEFECE" filter="url(#f1)" height="73.6094" style="stroke: #A80036; stroke-width: 1.5;" width="193" x="492.5" y="342"/><ellipse cx="544.25" cy="358" fill="#ADD1B2" rx="11" ry="11" style="stroke: #A80036; stroke-width: 1.0;"/><path d="M547.2188,363.6406 Q546.6406,363.9375 546,364.0859 Q545.3594,364.2344 544.6563,364.2344 Q542.1563,364.2344 540.8359,362.5859 Q539.5156,360.9375 539.5156,357.8125 Q539.5156,354.6875 540.8359,353.0313 Q542.1563,351.375 544.6563,351.375 Q545.3594,351.375 546.0078,351.5313 Q546.6563,351.6875 547.2188,351.9844 L547.2188,354.7031 Q546.5938,354.125 546,353.8516 Q545.4063,353.5781 544.7813,353.5781 Q543.4375,353.5781 542.75,354.6484 Q542.0625,355.7188 542.0625,357.8125 Q542.0625,359.9063 542.75,360.9766 Q543.4375,362.0469 544.7813,362.0469 Q545.4063,362.0469 546,361.7734 Q546.5938,361.5 547.2188,360.9219 L547.2188,363.6406 Z "/><text fill="#000000" font-family="sans-serif" font-size="12" lengthAdjust="spacingAndGlyphs" textLength="81" x="564.75" y="362.1543">ChessEngine</text><line style="stroke: #A80036; stroke-width: 1.5;" x1="493.5" x2="684.5" y1="374" y2="374"/><text fill="#000000" font-family="sans-serif" font-size="11" lengthAdjust="spacingAndGlyphs" textLength="110" x="498.5" y="388.2104">Thread readThread</text><text fill="#000000" font-family="sans-serif" font-size="11" lengthAdjust="spacingAndGlyphs" textLength="181" x="498.5" y="401.0151">ArrayList&lt;String&gt; currentBoard</text><line style="stroke: #A80036; stroke-width: 1.5;" x1="493.5" x2="684.5" y1="407.6094" y2="407.6094"/><rect fill="#FEFECE" filter="url(#f1)" height="112.0234" style="stroke: #A80036; stroke-width: 1.5;" width="172" x="285" y="323"/><ellipse cx="300" cy="339" fill="#ADD1B2" rx="11" ry="11" style="stroke: #A80036; stroke-width: 1.0;"/><path d="M302.9688,344.6406 Q302.3906,344.9375 301.75,345.0859 Q301.1094,345.2344 300.4063,345.2344 Q297.9063,345.2344 296.5859,343.5859 Q295.2656,341.9375 295.2656,338.8125 Q295.2656,335.6875 296.5859,334.0313 Q297.9063,332.375 300.4063,332.375 Q301.1094,332.375 301.7578,332.5313 Q302.4063,332.6875 302.9688,332.9844 L302.9688,335.7031 Q302.3438,335.125 301.75,334.8516 Q301.1563,334.5781 300.5313,334.5781 Q299.1875,334.5781 298.5,335.6484 Q297.8125,336.7188 297.8125,338.8125 Q297.8125,340.9063 298.5,341.9766 Q299.1875,343.0469 300.5313,343.0469 Q301.1563,343.0469 301.75,342.7734 Q302.3438,342.5 302.9688,341.9219 L302.9688,344.6406 Z "/><text fill="#000000" font-family="sans-serif" font-size="12" lengthAdjust="spacingAndGlyphs" textLength="140" x="314" y="343.1543">EngineStatusMessage</text><line style="stroke: #A80036; stroke-width: 1.5;" x1="286" x2="456" y1="355" y2="355"/><line style="stroke: #A80036; stroke-width: 1.5;" x1="286" x2="456" y1="363" y2="363"/><ellipse cx="296" cy="374.9023" fill="#84BE84" rx="3" ry="3" style="stroke: #038048; stroke-width: 1.0;"/><text fill="#000000" font-family="sans-serif" font-size="11" lengthAdjust="spacingAndGlyphs" textLength="122" x="305" y="377.2104">boolean invalidMove()</text><ellipse cx="296" cy="387.707" fill="#84BE84" rx="3" ry="3" style="stroke: #038048; stroke-width: 1.0;"/><text fill="#000000" font-family="sans-serif" font-size="11" lengthAdjust="spacingAndGlyphs" textLength="114" x="305" y="390.0151">boolean whiteMate()</text><ellipse cx="296" cy="400.5117" fill="#84BE84" rx="3" ry="3" style="stroke: #038048; stroke-width: 1.0;"/><text fill="#000000" font-family="sans-serif" font-size="11" lengthAdjust="spacingAndGlyphs" textLength="113" x="305" y="402.8198">boolean blackMate()</text><ellipse cx="296" cy="413.3164" fill="#84BE84" rx="3" ry="3" style="stroke: #038048; stroke-width: 1.0;"/><text fill="#000000" font-family="sans-serif" font-size="11" lengthAdjust="spacingAndGlyphs" textLength="73" x="305" y="415.6245">boolean OK()</text><ellipse cx="296" cy="426.1211" fill="#84BE84" rx="3" ry="3" style="stroke: #038048; stroke-width: 1.0;"/><text fill="#000000" font-family="sans-serif" font-size="11" lengthAdjust="spacingAndGlyphs" textLength="130" x="305" y="428.4292">boolean boardUpdate()</text><rect fill="#FEFECE" filter="url(#f1)" height="73.6094" style="stroke: #A80036; stroke-width: 1.5;" width="143" x="314.5" y="189"/><ellipse cx="334.9" cy="205" fill="#ADD1B2" rx="11" ry="11" style="stroke: #A80036; stroke-width: 1.0;"/><path d="M337.8688,210.6406 Q337.2906,210.9375 336.65,211.0859 Q336.0094,211.2344 335.3063,211.2344 Q332.8063,211.2344 331.4859,209.5859 Q330.1656,207.9375 330.1656,204.8125 Q330.1656,201.6875 331.4859,200.0313 Q332.8063,198.375 335.3063,198.375 Q336.0094,198.375 336.6578,198.5313 Q337.3063,198.6875 337.8688,198.9844 L337.8688,201.7031 Q337.2438,201.125 336.65,200.8516 Q336.0563,200.5781 335.4313,200.5781 Q334.0875,200.5781 333.4,201.6484 Q332.7125,202.7188 332.7125,204.8125 Q332.7125,206.9063 333.4,207.9766 Q334.0875,209.0469 335.4313,209.0469 Q336.0563,209.0469 336.65,208.7734 Q337.2438,208.5 337.8688,207.9219 L337.8688,210.6406 Z "/><text fill="#000000" font-family="sans-serif" font-size="12" lengthAdjust="spacingAndGlyphs" textLength="99" x="350.1" y="209.1543">ChessController</text><line style="stroke: #A80036; stroke-width: 1.5;" x1="315.5" x2="456.5" y1="221" y2="221"/><line style="stroke: #A80036; stroke-width: 1.5;" x1="315.5" x2="456.5" y1="229" y2="229"/><ellipse cx="325.5" cy="240.9023" fill="#84BE84" rx="3" ry="3" style="stroke: #038048; stroke-width: 1.0;"/><text fill="#000000" font-family="sans-serif" font-size="11" lengthAdjust="spacingAndGlyphs" textLength="117" x="334.5" y="243.2104">requestChessForm()</text><ellipse cx="325.5" cy="253.707" fill="#84BE84" rx="3" ry="3" style="stroke: #038048; stroke-width: 1.0;"/><text fill="#000000" font-family="sans-serif" font-size="11" lengthAdjust="spacingAndGlyphs" textLength="112" x="334.5" y="256.0151">processMoveForm()</text><rect fill="#FEFECE" filter="url(#f1)" height="112.0234" style="stroke: #A80036; stroke-width: 1.5;" width="141" x="108.5" y="323"/><ellipse cx="144.2" cy="339" fill="#ADD1B2" rx="11" ry="11" style="stroke: #A80036; stroke-width: 1.0;"/><path d="M147.1688,344.6406 Q146.5906,344.9375 145.95,345.0859 Q145.3094,345.2344 144.6063,345.2344 Q142.1063,345.2344 140.7859,343.5859 Q139.4656,341.9375 139.4656,338.8125 Q139.4656,335.6875 140.7859,334.0313 Q142.1063,332.375 144.6063,332.375 Q145.3094,332.375 145.9578,332.5313 Q146.6063,332.6875 147.1688,332.9844 L147.1688,335.7031 Q146.5438,335.125 145.95,334.8516 Q145.3563,334.5781 144.7313,334.5781 Q143.3875,334.5781 142.7,335.6484 Q142.0125,336.7188 142.0125,338.8125 Q142.0125,340.9063 142.7,341.9766 Q143.3875,343.0469 144.7313,343.0469 Q145.3563,343.0469 145.95,342.7734 Q146.5438,342.5 147.1688,341.9219 L147.1688,344.6406 Z "/><text fill="#000000" font-family="sans-serif" font-size="12" lengthAdjust="spacingAndGlyphs" textLength="63" x="162.8" y="343.1543">Messages</text><line style="stroke: #A80036; stroke-width: 1.5;" x1="109.5" x2="248.5" y1="355" y2="355"/><text fill="#000000" font-family="sans-serif" font-size="11" lengthAdjust="spacingAndGlyphs" textLength="93" x="114.5" y="369.2104">String blackWins</text><text fill="#000000" font-family="sans-serif" font-size="11" lengthAdjust="spacingAndGlyphs" textLength="94" x="114.5" y="382.0151">String whiteWins</text><text fill="#000000" font-family="sans-serif" font-size="11" lengthAdjust="spacingAndGlyphs" textLength="103" x="114.5" y="394.8198">String invalidMove</text><text fill="#000000" font-family="sans-serif" font-size="11" lengthAdjust="spacingAndGlyphs" textLength="97" x="114.5" y="407.6245">String enterMove</text><line style="stroke: #A80036; stroke-width: 1.5;" x1="109.5" x2="248.5" y1="414.2188" y2="414.2188"/><ellipse cx="119.5" cy="426.1211" fill="#84BE84" rx="3" ry="3" style="stroke: #038048; stroke-width: 1.0;"/><text fill="#000000" font-family="sans-serif" font-size="11" lengthAdjust="spacingAndGlyphs" textLength="115" x="128.5" y="428.4292">String getMessage()</text><rect fill="#FEFECE" filter="url(#f1)" height="48" style="stroke: #A80036; stroke-width: 1.5;" width="51" x="22.5" y="355"/><ellipse cx="37.5" cy="371" fill="#ADD1B2" rx="11" ry="11" style="stroke: #A80036; stroke-width: 1.0;"/><path d="M40.4688,376.6406 Q39.8906,376.9375 39.25,377.0859 Q38.6094,377.2344 37.9063,377.2344 Q35.4063,377.2344 34.0859,375.5859 Q32.7656,373.9375 32.7656,370.8125 Q32.7656,367.6875 34.0859,366.0313 Q35.4063,364.375 37.9063,364.375 Q38.6094,364.375 39.2578,364.5313 Q39.9063,364.6875 40.4688,364.9844 L40.4688,367.7031 Q39.8438,367.125 39.25,366.8516 Q38.6563,366.5781 38.0313,366.5781 Q36.6875,366.5781 36,367.6484 Q35.3125,368.7188 35.3125,370.8125 Q35.3125,372.9063 36,373.9766 Q36.6875,375.0469 38.0313,375.0469 Q38.6563,375.0469 39.25,374.7734 Q39.8438,374.5 40.4688,373.9219 L40.4688,376.6406 Z "/><text fill="#000000" font-family="sans-serif" font-size="12" lengthAdjust="spacingAndGlyphs" textLength="19" x="51.5" y="375.1543">JSP</text><line style="stroke: #A80036; stroke-width: 1.5;" x1="23.5" x2="72.5" y1="387" y2="387"/><line style="stroke: #A80036; stroke-width: 1.5;" x1="23.5" x2="72.5" y1="395" y2="395"/><rect fill="#FEFECE" filter="url(#f1)" height="86.4141" style="stroke: #A80036; stroke-width: 1.5;" width="219" x="276.5" y="43"/><ellipse cx="363.25" cy="59" fill="#ADD1B2" rx="11" ry="11" style="stroke: #A80036; stroke-width: 1.0;"/><path d="M366.2188,64.6406 Q365.6406,64.9375 365,65.0859 Q364.3594,65.2344 363.6563,65.2344 Q361.1563,65.2344 359.8359,63.5859 Q358.5156,61.9375 358.5156,58.8125 Q358.5156,55.6875 359.8359,54.0313 Q361.1563,52.375 363.6563,52.375 Q364.3594,52.375 365.0078,52.5313 Q365.6563,52.6875 366.2188,52.9844 L366.2188,55.7031 Q365.5938,55.125 365,54.8516 Q364.4063,54.5781 363.7813,54.5781 Q362.4375,54.5781 361.75,55.6484 Q361.0625,56.7188 361.0625,58.8125 Q361.0625,60.9063 361.75,61.9766 Q362.4375,63.0469 363.7813,63.0469 Q364.4063,63.0469 365,62.7734 Q365.5938,62.5 366.2188,61.9219 L366.2188,64.6406 Z "/><text fill="#000000" font-family="sans-serif" font-size="12" lengthAdjust="spacingAndGlyphs" textLength="37" x="383.75" y="63.1543">Board</text><line style="stroke: #A80036; stroke-width: 1.5;" x1="277.5" x2="494.5" y1="75" y2="75"/><text fill="#000000" font-family="sans-serif" font-size="11" lengthAdjust="spacingAndGlyphs" textLength="207" x="282.5" y="89.2104">ArrayList&lt;ArrayList&lt;String&gt;&gt; board</text><line style="stroke: #A80036; stroke-width: 1.5;" x1="277.5" x2="494.5" y1="95.8047" y2="95.8047"/><ellipse cx="287.5" cy="107.707" fill="#84BE84" rx="3" ry="3" style="stroke: #038048; stroke-width: 1.0;"/><text fill="#000000" font-family="sans-serif" font-size="11" lengthAdjust="spacingAndGlyphs" textLength="158" x="296.5" y="110.0151">setState(ArrayList&lt;String&gt;)</text><ellipse cx="287.5" cy="120.5117" fill="#84BE84" rx="3" ry="3" style="stroke: #038048; stroke-width: 1.0;"/><text fill="#000000" font-family="sans-serif" font-size="11" lengthAdjust="spacingAndGlyphs" textLength="115" x="296.5" y="122.8198">getBoardAsStrings()</text><rect fill="#FEFECE" filter="url(#f1)" height="73.6094" style="stroke: #A80036; stroke-width: 1.5;" width="162" x="79" y="49"/><ellipse cx="139.75" cy="65" fill="#ADD1B2" rx="11" ry="11" style="stroke: #A80036; stroke-width: 1.0;"/><path d="M142.7188,70.6406 Q142.1406,70.9375 141.5,71.0859 Q140.8594,71.2344 140.1563,71.2344 Q137.6563,71.2344 136.3359,69.5859 Q135.0156,67.9375 135.0156,64.8125 Q135.0156,61.6875 136.3359,60.0313 Q137.6563,58.375 140.1563,58.375 Q140.8594,58.375 141.5078,58.5313 Q142.1563,58.6875 142.7188,58.9844 L142.7188,61.7031 Q142.0938,61.125 141.5,60.8516 Q140.9063,60.5781 140.2813,60.5781 Q138.9375,60.5781 138.25,61.6484 Q137.5625,62.7188 137.5625,64.8125 Q137.5625,66.9063 138.25,67.9766 Q138.9375,69.0469 140.2813,69.0469 Q140.9063,69.0469 141.5,68.7734 Q142.0938,68.5 142.7188,67.9219 L142.7188,70.6406 Z "/><text fill="#000000" font-family="sans-serif" font-size="12" lengthAdjust="spacingAndGlyphs" textLength="32" x="160.25" y="69.1543">Move</text><line style="stroke: #A80036; stroke-width: 1.5;" x1="80" x2="240" y1="81" y2="81"/><text fill="#000000" font-family="sans-serif" font-size="11" lengthAdjust="spacingAndGlyphs" textLength="123" x="85" y="95.2104">String requestToUser</text><text fill="#000000" font-family="sans-serif" font-size="11" lengthAdjust="spacingAndGlyphs" textLength="150" x="85" y="108.0151">String commandFromUser</text><line style="stroke: #A80036; stroke-width: 1.5;" x1="80" x2="240" y1="114.6094" y2="114.6094"/><rect fill="#FEFECE" filter="url(#f1)" height="48" style="stroke: #A80036; stroke-width: 1.5;" width="143" x="530.5" y="62"/><ellipse cx="545.5" cy="78" fill="#ADD1B2" rx="11" ry="11" style="stroke: #A80036; stroke-width: 1.0;"/><path d="M548.4688,83.6406 Q547.8906,83.9375 547.25,84.0859 Q546.6094,84.2344 545.9063,84.2344 Q543.4063,84.2344 542.0859,82.5859 Q540.7656,80.9375 540.7656,77.8125 Q540.7656,74.6875 542.0859,73.0313 Q543.4063,71.375 545.9063,71.375 Q546.6094,71.375 547.2578,71.5313 Q547.9063,71.6875 548.4688,71.9844 L548.4688,74.7031 Q547.8438,74.125 547.25,73.8516 Q546.6563,73.5781 546.0313,73.5781 Q544.6875,73.5781 544,74.6484 Q543.3125,75.7188 543.3125,77.8125 Q543.3125,79.9063 544,80.9766 Q544.6875,82.0469 546.0313,82.0469 Q546.6563,82.0469 547.25,81.7734 Q547.8438,81.5 548.4688,80.9219 L548.4688,83.6406 Z "/><text fill="#000000" font-family="sans-serif" font-size="12" lengthAdjust="spacingAndGlyphs" textLength="111" x="559.5" y="82.1543">DispatcherServlet</text><line style="stroke: #A80036; stroke-width: 1.5;" x1="531.5" x2="672.5" y1="94" y2="94"/><line style="stroke: #A80036; stroke-width: 1.5;" x1="531.5" x2="672.5" y1="102" y2="102"/><path d="M577.681,416.286 C571.619,435.723 563.987,460.187 557.041,482.457 " fill="none" style="stroke: #A80036; stroke-width: 1.0;"/><polygon fill="#A80036" points="553.157,494.908,558.7623,490.3715,556.7307,483.4525,551.1253,487.989,553.157,494.908" style="stroke: #A80036; stroke-width: 1.0;"/><path d="M319.496,263.018 C302.582,273.036 284.747,284.376 269,296 C259.328,303.14 249.511,311.155 240.091,319.303 " fill="none" style="stroke: #A80036; stroke-width: 1.0;"/><polygon fill="#A80036" points="236.08,322.801,245.4924,319.9015,239.8487,319.5152,240.235,313.8715,236.08,322.801" style="stroke: #A80036; stroke-width: 1.0;"/><path d="M386,142.497 C386,158.055 386,174.566 386,188.697 " fill="none" style="stroke: #A80036; stroke-width: 1.0;"/><polygon fill="#A80036" points="386,129.154,382,135.154,386,141.154,390,135.154,386,129.154" style="stroke: #A80036; stroke-width: 1.0;"/><path d="M230.254,129.898 C261.249,148.825 297.276,170.824 326.869,188.894 " fill="none" style="stroke: #A80036; stroke-width: 1.0;"/><polygon fill="#A80036" points="219.084,123.078,222.1207,129.6185,229.326,129.3311,226.2894,122.7905,219.084,123.078" style="stroke: #A80036; stroke-width: 1.0;"/><path d="M548.947,120.895 C516.68,141.51 475.494,167.824 442.602,188.838 " fill="none" style="stroke: #A80036; stroke-width: 1.0;"/><polygon fill="none" points="545.224,114.967,565.846,110.098,552.761,126.765,545.224,114.967" style="stroke: #A80036; stroke-width: 1.0;"/><path d="M434.624,263.168 C463.268,284.475 499.708,311.581 529.99,334.106 " fill="none" style="stroke: #A80036; stroke-width: 1.0;"/><polygon fill="#A80036" points="540.422,341.865,537.9959,335.0743,530.7944,334.702,533.2205,341.4927,540.422,341.865" style="stroke: #A80036; stroke-width: 1.0;"/></g></svg>