<?xml version="1.0" encoding="UTF-8" standalone="yes"?><svg xmlns="http://www.w3.org/2000/svg" xmlns:xlink="http://www.w3.org/1999/xlink" height="573pt" style="width:1029px;height:573px;" version="1.1" viewBox="0 0 1029 573" width="1029pt"><defs><filter height="300%" id="f1" width="300%" x="-1" y="-1"><feGaussianBlur result="blurOut" stdDeviation="2.0"/><feColorMatrix in="blurOut" result="blurOut2" type="matrix" values="0 0 0 0 0 0 0 0 0 0 0 0 0 0 0 0 0 0 .4 0"/><feOffset dx="4.0" dy="4.0" in="blurOut2" result="blurOut3"/><feBlend in="SourceGraphic" in2="blurOut3" mode="normal"/></filter></defs><g><text fill="#000000" font-family="sans-serif" font-size="18" lengthAdjust="spacingAndGlyphs" textLength="279" x="384.5" y="16.708">UML Diagram of Chess Website</text><polygon fill="#FFFFFF" filter="url(#f1)" points="14,36.9531,74,36.9531,81,59.25,511,59.25,511,394.9531,14,394.9531,14,36.9531" style="stroke: #000000; stroke-width: 2.0;"/><line style="stroke: #000000; stroke-width: 2.0;" x1="14" x2="81" y1="59.25" y2="59.25"/><text fill="#000000" font-family="sans-serif" font-size="14" font-weight="bold" lengthAdjust="spacingAndGlyphs" textLength="54" x="17" y="52.9482">engine</text><polygon fill="#FFFFFF" filter="url(#f1)" points="591,257.9531,674,257.9531,681,280.25,751,280.25,751,358.9531,591,358.9531,591,257.9531" style="stroke: #000000; stroke-width: 2.0;"/><line style="stroke: #000000; stroke-width: 2.0;" x1="591" x2="681" y1="280.25" y2="280.25"/><text fill="#000000" font-family="sans-serif" font-size="14" font-weight="bold" lengthAdjust="spacingAndGlyphs" textLength="77" x="594" y="273.9482">controller</text><rect fill="#FFFFFF" filter="url(#f1)" height="163" style="stroke: #000000; stroke-width: 2.0;" width="355" x="399" y="403.9531"/><text fill="#000000" font-family="sans-serif" font-size="14" font-weight="bold" lengthAdjust="spacingAndGlyphs" textLength="37" x="558" y="421.9482">view</text><polygon fill="#FFFFFF" filter="url(#f1)" points="563,56.4531,617,56.4531,624,78.75,1022,78.75,1022,177.4531,563,177.4531,563,56.4531" style="stroke: #000000; stroke-width: 2.0;"/><line style="stroke: #000000; stroke-width: 2.0;" x1="563" x2="624" y1="78.75" y2="78.75"/><text fill="#000000" font-family="sans-serif" font-size="14" font-weight="bold" lengthAdjust="spacingAndGlyphs" textLength="48" x="566" y="72.4482">model</text><polygon fill="#FFFFFF" filter="url(#f1)" points="767,459.9531,1008,459.9531,1015,482.25,1018,482.25,1018,526.9531,767,526.9531,767,459.9531" style="stroke: #000000; stroke-width: 2.0;"/><line style="stroke: #000000; stroke-width: 2.0;" x1="767" x2="1015" y1="482.25" y2="482.25"/><text fill="#000000" font-family="sans-serif" font-size="14" font-weight="bold" lengthAdjust="spacingAndGlyphs" textLength="235" x="770" y="475.9482">springframework.web.servlet</text><rect fill="#FEFECE" filter="url(#f1)" height="137.6328" style="stroke: #A80036; stroke-width: 1.5;" width="318" x="178" y="248.9531"/><ellipse cx="305.25" cy="264.9531" fill="#ADD1B2" rx="11" ry="11" style="stroke: #A80036; stroke-width: 1.0;"/><path d="M308.2188,270.5938 Q307.6406,270.8906 307,271.0391 Q306.3594,271.1875 305.6563,271.1875 Q303.1563,271.1875 301.8359,269.5391 Q300.5156,267.8906 300.5156,264.7656 Q300.5156,261.6406 301.8359,259.9844 Q303.1563,258.3281 305.6563,258.3281 Q306.3594,258.3281 307.0078,258.4844 Q307.6563,258.6406 308.2188,258.9375 L308.2188,261.6563 Q307.5938,261.0781 307,260.8047 Q306.4063,260.5313 305.7813,260.5313 Q304.4375,260.5313 303.75,261.6016 Q303.0625,262.6719 303.0625,264.7656 Q303.0625,266.8594 303.75,267.9297 Q304.4375,269 305.7813,269 Q306.4063,269 307,268.7266 Q307.5938,268.4531 308.2188,267.875 L308.2188,270.5938 Z "/><text fill="#000000" font-family="sans-serif" font-size="12" lengthAdjust="spacingAndGlyphs" textLength="55" x="325.75" y="269.1074">EngineIO</text><line style="stroke: #A80036; stroke-width: 1.5;" x1="179" x2="495" y1="280.9531" y2="280.9531"/><text fill="#000000" font-family="sans-serif" font-size="11" lengthAdjust="spacingAndGlyphs" textLength="131" x="184" y="295.1636">BufferedReader reader</text><text fill="#000000" font-family="sans-serif" font-size="11" lengthAdjust="spacingAndGlyphs" textLength="119" x="184" y="307.9683">BufferedWriter writer</text><text fill="#000000" font-family="sans-serif" font-size="11" lengthAdjust="spacingAndGlyphs" textLength="134" x="184" y="320.7729">Process engineProcess</text><text fill="#000000" font-family="sans-serif" font-size="11" lengthAdjust="spacingAndGlyphs" textLength="283" x="184" y="333.5776">ConcurrentLinkedDeque&lt;engine.StatusMessage&gt;</text><line style="stroke: #A80036; stroke-width: 1.5;" x1="179" x2="495" y1="340.1719" y2="340.1719"/><rect fill="#F24D5C" height="6" style="stroke: #C82930; stroke-width: 1.0;" width="6" x="186" y="349.0742"/><text fill="#000000" font-family="sans-serif" font-size="11" lengthAdjust="spacingAndGlyphs" textLength="276" x="198" y="354.3823">synchronized addReplyToQueue(StatusMessage)</text><polygon fill="#FFFF44" points="189,359.8789,193,363.8789,189,367.8789,185,363.8789" style="stroke: #B38D22; stroke-width: 1.0;"/><text fill="#000000" font-family="sans-serif" font-size="11" lengthAdjust="spacingAndGlyphs" textLength="292" x="198" y="367.187">synchronized StatusMessage getReplyFromQueue()</text><polygon fill="#FFFF44" points="189,372.6836,193,376.6836,189,380.6836,185,376.6836" style="stroke: #B38D22; stroke-width: 1.0;"/><text fill="#000000" font-family="sans-serif" font-size="11" lengthAdjust="spacingAndGlyphs" textLength="128" x="198" y="379.9917">sendCommand(String)</text><rect fill="#FEFECE" filter="url(#f1)" height="99.2188" style="stroke: #A80036; stroke-width: 1.5;" width="207" x="295.5" y="76.9531"/><ellipse cx="354.25" cy="92.9531" fill="#ADD1B2" rx="11" ry="11" style="stroke: #A80036; stroke-width: 1.0;"/><path d="M357.2188,98.5938 Q356.6406,98.8906 356,99.0391 Q355.3594,99.1875 354.6563,99.1875 Q352.1563,99.1875 350.8359,97.5391 Q349.5156,95.8906 349.5156,92.7656 Q349.5156,89.6406 350.8359,87.9844 Q352.1563,86.3281 354.6563,86.3281 Q355.3594,86.3281 356.0078,86.4844 Q356.6563,86.6406 357.2188,86.9375 L357.2188,89.6563 Q356.5938,89.0781 356,88.8047 Q355.4063,88.5313 354.7813,88.5313 Q353.4375,88.5313 352.75,89.6016 Q352.0625,90.6719 352.0625,92.7656 Q352.0625,94.8594 352.75,95.9297 Q353.4375,97 354.7813,97 Q355.4063,97 356,96.7266 Q356.5938,96.4531 357.2188,95.875 L357.2188,98.5938 Z "/><text fill="#000000" font-family="sans-serif" font-size="12" lengthAdjust="spacingAndGlyphs" textLength="81" x="374.75" y="97.1074">ChessEngine</text><line style="stroke: #A80036; stroke-width: 1.5;" x1="296.5" x2="501.5" y1="108.9531" y2="108.9531"/><rect fill="none" height="6" style="stroke: #C82930; stroke-width: 1.0;" width="6" x="303.5" y="117.8555"/><text fill="#000000" font-family="sans-serif" font-size="11" lengthAdjust="spacingAndGlyphs" textLength="110" x="315.5" y="123.1636">Thread readThread</text><rect fill="none" height="6" style="stroke: #C82930; stroke-width: 1.0;" width="6" x="303.5" y="130.6602"/><text fill="#000000" font-family="sans-serif" font-size="11" lengthAdjust="spacingAndGlyphs" textLength="181" x="315.5" y="135.9683">ArrayList&lt;String&gt; currentBoard</text><line style="stroke: #A80036; stroke-width: 1.5;" x1="296.5" x2="501.5" y1="142.5625" y2="142.5625"/><ellipse cx="306.5" cy="154.4648" fill="#84BE84" rx="3" ry="3" style="stroke: #038048; stroke-width: 1.0;"/><text fill="#000000" font-family="sans-serif" font-size="11" lengthAdjust="spacingAndGlyphs" textLength="178" x="315.5" y="156.7729">MoveResult validateMove(Move)</text><ellipse cx="306.5" cy="167.2695" fill="#84BE84" rx="3" ry="3" style="stroke: #038048; stroke-width: 1.0;"/><text fill="#000000" font-family="sans-serif" font-size="11" lengthAdjust="spacingAndGlyphs" textLength="65" x="315.5" y="169.5776">void close()</text><rect fill="#FEFECE" filter="url(#f1)" height="124.8281" style="stroke: #A80036; stroke-width: 1.5;" width="238" x="22" y="63.9531"/><ellipse cx="88.25" cy="79.9531" fill="#ADD1B2" rx="11" ry="11" style="stroke: #A80036; stroke-width: 1.0;"/><path d="M91.2188,85.5938 Q90.6406,85.8906 90,86.0391 Q89.3594,86.1875 88.6563,86.1875 Q86.1563,86.1875 84.8359,84.5391 Q83.5156,82.8906 83.5156,79.7656 Q83.5156,76.6406 84.8359,74.9844 Q86.1563,73.3281 88.6563,73.3281 Q89.3594,73.3281 90.0078,73.4844 Q90.6563,73.6406 91.2188,73.9375 L91.2188,76.6563 Q90.5938,76.0781 90,75.8047 Q89.4063,75.5313 88.7813,75.5313 Q87.4375,75.5313 86.75,76.6016 Q86.0625,77.6719 86.0625,79.7656 Q86.0625,81.8594 86.75,82.9297 Q87.4375,84 88.7813,84 Q89.4063,84 90,83.7266 Q90.5938,83.4531 91.2188,82.875 L91.2188,85.5938 Z "/><text fill="#000000" font-family="sans-serif" font-size="12" lengthAdjust="spacingAndGlyphs" textLength="97" x="108.75" y="84.1074">StatusMessage</text><line style="stroke: #A80036; stroke-width: 1.5;" x1="23" x2="259" y1="95.9531" y2="95.9531"/><rect fill="none" height="6" style="stroke: #C82930; stroke-width: 1.0;" width="6" x="30" y="104.8555"/><text fill="#000000" font-family="sans-serif" font-size="11" lengthAdjust="spacingAndGlyphs" textLength="212" x="42" y="110.1636">ArrayList&lt;String&gt; engineOutputLines</text><line style="stroke: #A80036; stroke-width: 1.5;" x1="23" x2="259" y1="116.7578" y2="116.7578"/><ellipse cx="33" cy="128.6602" fill="#84BE84" rx="3" ry="3" style="stroke: #038048; stroke-width: 1.0;"/><text fill="#000000" font-family="sans-serif" font-size="11" lengthAdjust="spacingAndGlyphs" textLength="122" x="42" y="130.9683">boolean invalidMove()</text><ellipse cx="33" cy="141.4648" fill="#84BE84" rx="3" ry="3" style="stroke: #038048; stroke-width: 1.0;"/><text fill="#000000" font-family="sans-serif" font-size="11" lengthAdjust="spacingAndGlyphs" textLength="114" x="42" y="143.7729">boolean whiteMate()</text><ellipse cx="33" cy="154.2695" fill="#84BE84" rx="3" ry="3" style="stroke: #038048; stroke-width: 1.0;"/><text fill="#000000" font-family="sans-serif" font-size="11" lengthAdjust="spacingAndGlyphs" textLength="113" x="42" y="156.5776">boolean blackMate()</text><ellipse cx="33" cy="167.0742" fill="#84BE84" rx="3" ry="3" style="stroke: #038048; stroke-width: 1.0;"/><text fill="#000000" font-family="sans-serif" font-size="11" lengthAdjust="spacingAndGlyphs" textLength="73" x="42" y="169.3823">boolean OK()</text><ellipse cx="33" cy="179.8789" fill="#84BE84" rx="3" ry="3" style="stroke: #038048; stroke-width: 1.0;"/><text fill="#000000" font-family="sans-serif" font-size="11" lengthAdjust="spacingAndGlyphs" textLength="130" x="42" y="182.187">boolean boardUpdate()</text><rect fill="#FEFECE" filter="url(#f1)" height="65.6094" style="stroke: #A80036; stroke-width: 1.5;" width="143" x="599.5" y="284.9531"/><ellipse cx="619.9" cy="300.9531" fill="#ADD1B2" rx="11" ry="11" style="stroke: #A80036; stroke-width: 1.0;"/><path d="M622.8688,306.5938 Q622.2906,306.8906 621.65,307.0391 Q621.0094,307.1875 620.3063,307.1875 Q617.8063,307.1875 616.4859,305.5391 Q615.1656,303.8906 615.1656,300.7656 Q615.1656,297.6406 616.4859,295.9844 Q617.8063,294.3281 620.3063,294.3281 Q621.0094,294.3281 621.6578,294.4844 Q622.3063,294.6406 622.8688,294.9375 L622.8688,297.6563 Q622.2438,297.0781 621.65,296.8047 Q621.0563,296.5313 620.4313,296.5313 Q619.0875,296.5313 618.4,297.6016 Q617.7125,298.6719 617.7125,300.7656 Q617.7125,302.8594 618.4,303.9297 Q619.0875,305 620.4313,305 Q621.0563,305 621.65,304.7266 Q622.2438,304.4531 622.8688,303.875 L622.8688,306.5938 Z "/><text fill="#000000" font-family="sans-serif" font-size="12" lengthAdjust="spacingAndGlyphs" textLength="99" x="635.1" y="305.1074">ChessController</text><line style="stroke: #A80036; stroke-width: 1.5;" x1="600.5" x2="741.5" y1="316.9531" y2="316.9531"/><ellipse cx="610.5" cy="328.8555" fill="#84BE84" rx="3" ry="3" style="stroke: #038048; stroke-width: 1.0;"/><text fill="#000000" font-family="sans-serif" font-size="11" lengthAdjust="spacingAndGlyphs" textLength="117" x="619.5" y="331.1636">requestChessForm()</text><ellipse cx="610.5" cy="341.6602" fill="#84BE84" rx="3" ry="3" style="stroke: #038048; stroke-width: 1.0;"/><text fill="#000000" font-family="sans-serif" font-size="11" lengthAdjust="spacingAndGlyphs" textLength="112" x="619.5" y="343.9683">processMoveForm()</text><rect fill="#FEFECE" filter="url(#f1)" height="112.0234" style="stroke: #A80036; stroke-width: 1.5;" width="141" x="604.5" y="446.9531"/><ellipse cx="640.2" cy="462.9531" fill="#ADD1B2" rx="11" ry="11" style="stroke: #A80036; stroke-width: 1.0;"/><path d="M643.1688,468.5938 Q642.5906,468.8906 641.95,469.0391 Q641.3094,469.1875 640.6063,469.1875 Q638.1063,469.1875 636.7859,467.5391 Q635.4656,465.8906 635.4656,462.7656 Q635.4656,459.6406 636.7859,457.9844 Q638.1063,456.3281 640.6063,456.3281 Q641.3094,456.3281 641.9578,456.4844 Q642.6063,456.6406 643.1688,456.9375 L643.1688,459.6563 Q642.5438,459.0781 641.95,458.8047 Q641.3563,458.5313 640.7313,458.5313 Q639.3875,458.5313 638.7,459.6016 Q638.0125,460.6719 638.0125,462.7656 Q638.0125,464.8594 638.7,465.9297 Q639.3875,467 640.7313,467 Q641.3563,467 641.95,466.7266 Q642.5438,466.4531 643.1688,465.875 L643.1688,468.5938 Z "/><text fill="#000000" font-family="sans-serif" font-size="12" lengthAdjust="spacingAndGlyphs" textLength="63" x="658.8" y="467.1074">Messages</text><line style="stroke: #A80036; stroke-width: 1.5;" x1="605.5" x2="744.5" y1="478.9531" y2="478.9531"/><text fill="#000000" font-family="sans-serif" font-size="11" lengthAdjust="spacingAndGlyphs" textLength="93" x="610.5" y="493.1636">String blackWins</text><text fill="#000000" font-family="sans-serif" font-size="11" lengthAdjust="spacingAndGlyphs" textLength="94" x="610.5" y="505.9683">String whiteWins</text><text fill="#000000" font-family="sans-serif" font-size="11" lengthAdjust="spacingAndGlyphs" textLength="103" x="610.5" y="518.7729">String invalidMove</text><text fill="#000000" font-family="sans-serif" font-size="11" lengthAdjust="spacingAndGlyphs" textLength="97" x="610.5" y="531.5776">String enterMove</text><line style="stroke: #A80036; stroke-width: 1.5;" x1="605.5" x2="744.5" y1="538.1719" y2="538.1719"/><ellipse cx="615.5" cy="550.0742" fill="#84BE84" rx="3" ry="3" style="stroke: #038048; stroke-width: 1.0;"/><text fill="#000000" font-family="sans-serif" font-size="11" lengthAdjust="spacingAndGlyphs" textLength="115" x="624.5" y="552.3823">String getMessage()</text><rect fill="#FEFECE" filter="url(#f1)" height="32" style="stroke: #A80036; stroke-width: 1.5;" width="162" x="407" y="486.9531"/><ellipse cx="422" cy="502.9531" fill="#DA70D6" rx="11" ry="11" style="stroke: #A80036; stroke-width: 1.0;"/><path d="M423.2031,503.0938 Q423.5625,503.1719 423.8359,503.4453 Q424.1094,503.7188 424.5,504.5 L426.7344,508.9531 L424.0469,508.9531 L422.5469,505.8281 Q422.4844,505.6875 422.375,505.4531 Q421.7188,504.0625 420.8281,504.0625 L420.0469,504.0625 L420.0469,508.9531 L417.6094,508.9531 L417.6094,496.5625 L421.1406,496.5625 Q423.5313,496.5625 424.5703,497.4063 Q425.6094,498.25 425.6094,500.1563 Q425.6094,501.4375 424.9922,502.1953 Q424.375,502.9531 423.2031,503.0938 Z M420.0469,498.625 L420.0469,502 L421.2031,502 Q422.2188,502 422.6484,501.6016 Q423.0781,501.2031 423.0781,500.2969 Q423.0781,499.4063 422.6484,499.0156 Q422.2188,498.625 421.2031,498.625 L420.0469,498.625 Z "/><text fill="#000000" font-family="sans-serif" font-size="12" lengthAdjust="spacingAndGlyphs" textLength="130" x="436" y="507.1074">View Templates (JSP)</text><rect fill="#FEFECE" filter="url(#f1)" height="86.4141" style="stroke: #A80036; stroke-width: 1.5;" width="233" x="781.5" y="83.4531"/><ellipse cx="875.25" cy="99.4531" fill="#ADD1B2" rx="11" ry="11" style="stroke: #A80036; stroke-width: 1.0;"/><path d="M878.2188,105.0938 Q877.6406,105.3906 877,105.5391 Q876.3594,105.6875 875.6563,105.6875 Q873.1563,105.6875 871.8359,104.0391 Q870.5156,102.3906 870.5156,99.2656 Q870.5156,96.1406 871.8359,94.4844 Q873.1563,92.8281 875.6563,92.8281 Q876.3594,92.8281 877.0078,92.9844 Q877.6563,93.1406 878.2188,93.4375 L878.2188,96.1563 Q877.5938,95.5781 877,95.3047 Q876.4063,95.0313 875.7813,95.0313 Q874.4375,95.0313 873.75,96.1016 Q873.0625,97.1719 873.0625,99.2656 Q873.0625,101.3594 873.75,102.4297 Q874.4375,103.5 875.7813,103.5 Q876.4063,103.5 877,103.2266 Q877.5938,102.9531 878.2188,102.375 L878.2188,105.0938 Z "/><text fill="#000000" font-family="sans-serif" font-size="12" lengthAdjust="spacingAndGlyphs" textLength="37" x="895.75" y="103.6074">Board</text><line style="stroke: #A80036; stroke-width: 1.5;" x1="782.5" x2="1013.5" y1="115.4531" y2="115.4531"/><rect fill="none" height="6" style="stroke: #C82930; stroke-width: 1.0;" width="6" x="789.5" y="124.3555"/><text fill="#000000" font-family="sans-serif" font-size="11" lengthAdjust="spacingAndGlyphs" textLength="207" x="801.5" y="129.6636">ArrayList&lt;ArrayList&lt;String&gt;&gt; board</text><line style="stroke: #A80036; stroke-width: 1.5;" x1="782.5" x2="1013.5" y1="136.2578" y2="136.2578"/><ellipse cx="792.5" cy="148.1602" fill="#84BE84" rx="3" ry="3" style="stroke: #038048; stroke-width: 1.0;"/><text fill="#000000" font-family="sans-serif" font-size="11" lengthAdjust="spacingAndGlyphs" textLength="158" x="801.5" y="150.4683">setState(ArrayList&lt;String&gt;)</text><ellipse cx="792.5" cy="160.9648" fill="#84BE84" rx="3" ry="3" style="stroke: #038048; stroke-width: 1.0;"/><text fill="#000000" font-family="sans-serif" font-size="11" lengthAdjust="spacingAndGlyphs" textLength="115" x="801.5" y="163.2729">getBoardAsStrings()</text><rect fill="#FEFECE" filter="url(#f1)" height="65.6094" style="stroke: #A80036; stroke-width: 1.5;" width="176" x="571" y="93.4531"/><ellipse cx="638.75" cy="109.4531" fill="#ADD1B2" rx="11" ry="11" style="stroke: #A80036; stroke-width: 1.0;"/><path d="M641.7188,115.0938 Q641.1406,115.3906 640.5,115.5391 Q639.8594,115.6875 639.1563,115.6875 Q636.6563,115.6875 635.3359,114.0391 Q634.0156,112.3906 634.0156,109.2656 Q634.0156,106.1406 635.3359,104.4844 Q636.6563,102.8281 639.1563,102.8281 Q639.8594,102.8281 640.5078,102.9844 Q641.1563,103.1406 641.7188,103.4375 L641.7188,106.1563 Q641.0938,105.5781 640.5,105.3047 Q639.9063,105.0313 639.2813,105.0313 Q637.9375,105.0313 637.25,106.1016 Q636.5625,107.1719 636.5625,109.2656 Q636.5625,111.3594 637.25,112.4297 Q637.9375,113.5 639.2813,113.5 Q639.9063,113.5 640.5,113.2266 Q641.0938,112.9531 641.7188,112.375 L641.7188,115.0938 Z "/><text fill="#000000" font-family="sans-serif" font-size="12" lengthAdjust="spacingAndGlyphs" textLength="32" x="659.25" y="113.6074">Move</text><line style="stroke: #A80036; stroke-width: 1.5;" x1="572" x2="746" y1="125.4531" y2="125.4531"/><rect fill="none" height="6" style="stroke: #C82930; stroke-width: 1.0;" width="6" x="579" y="134.3555"/><text fill="#000000" font-family="sans-serif" font-size="11" lengthAdjust="spacingAndGlyphs" textLength="123" x="591" y="139.6636">String requestToUser</text><rect fill="none" height="6" style="stroke: #C82930; stroke-width: 1.0;" width="6" x="579" y="147.1602"/><text fill="#000000" font-family="sans-serif" font-size="11" lengthAdjust="spacingAndGlyphs" textLength="150" x="591" y="152.4683">String commandFromUser</text><rect fill="#FEFECE" filter="url(#f1)" height="32" style="stroke: #A80036; stroke-width: 1.5;" width="143" x="780.5" y="486.9531"/><ellipse cx="795.5" cy="502.9531" fill="#ADD1B2" rx="11" ry="11" style="stroke: #A80036; stroke-width: 1.0;"/><path d="M798.4688,508.5938 Q797.8906,508.8906 797.25,509.0391 Q796.6094,509.1875 795.9063,509.1875 Q793.4063,509.1875 792.0859,507.5391 Q790.7656,505.8906 790.7656,502.7656 Q790.7656,499.6406 792.0859,497.9844 Q793.4063,496.3281 795.9063,496.3281 Q796.6094,496.3281 797.2578,496.4844 Q797.9063,496.6406 798.4688,496.9375 L798.4688,499.6563 Q797.8438,499.0781 797.25,498.8047 Q796.6563,498.5313 796.0313,498.5313 Q794.6875,498.5313 794,499.6016 Q793.3125,500.6719 793.3125,502.7656 Q793.3125,504.8594 794,505.9297 Q794.6875,507 796.0313,507 Q796.6563,507 797.25,506.7266 Q797.8438,506.4531 798.4688,505.875 L798.4688,508.5938 Z "/><text fill="#000000" font-family="sans-serif" font-size="12" lengthAdjust="spacingAndGlyphs" textLength="111" x="809.5" y="507.1074">DispatcherServlet</text><rect fill="#FEFECE" filter="url(#f1)" height="32" style="stroke: #A80036; stroke-width: 1.5;" width="91" x="280.5" y="486.9531"/><ellipse cx="295.5" cy="502.9531" fill="#B4A7E5" rx="11" ry="11" style="stroke: #A80036; stroke-width: 1.0;"/><path d="M291.4219,498.7188 L291.4219,496.5625 L298.8125,496.5625 L298.8125,498.7188 L296.3438,498.7188 L296.3438,506.7969 L298.8125,506.7969 L298.8125,508.9531 L291.4219,508.9531 L291.4219,506.7969 L293.8906,506.7969 L293.8906,498.7188 L291.4219,498.7188 Z "/><text fill="#000000" font-family="sans-serif" font-size="12" font-style="italic" lengthAdjust="spacingAndGlyphs" textLength="59" x="309.5" y="507.1074">Runnable</text><path d="M332.904,387.0951 C331.272,414.2381 329.464,444.3201 328.108,466.8871 " fill="none" style="stroke: #A80036; stroke-width: 1.0;"/><polygon fill="none" points="335.092,467.3611,326.905,486.9045,321.117,466.5201,335.092,467.3611" style="stroke: #A80036; stroke-width: 1.0;"/><path d="M383.033,176.2541 C377.061,194.5081 370.107,215.7641 363.44,236.1401 " fill="none" style="stroke: #A80036; stroke-width: 1.0;"/><polygon fill="#A80036" points="359.338,248.6791,365.0056,244.2206,363.0698,237.2741,357.4022,241.7327,359.338,248.6791" style="stroke: #A80036; stroke-width: 1.0;"/><path d="M671.706,351.2481 C672.251,376.1771 673.02,411.3801 673.678,441.4941 " fill="none" style="stroke: #A80036; stroke-width: 1.0;"/><polygon fill="#A80036" points="673.792,446.6661,677.5956,437.5814,673.6834,441.6673,669.5975,437.7551,673.792,446.6661" style="stroke: #A80036; stroke-width: 1.0;"/><path d="M638.705,351.2481 C600.447,389.5061 537.992,451.9611 506.868,483.0851 " fill="none" style="stroke: #A80036; stroke-width: 1.0;"/><polygon fill="#A80036" points="503.231,486.7217,512.424,483.1879,506.7672,483.1868,506.7682,477.53,503.231,486.7217" style="stroke: #A80036; stroke-width: 1.0;"/><path d="M837.569,177.9011 C796.967,211.7951 744.674,255.4491 709.608,284.7231 " fill="none" style="stroke: #A80036; stroke-width: 1.0;"/><polygon fill="#A80036" points="847.621,169.5091,840.4516,170.2836,838.409,177.1994,845.5784,176.4249,847.621,169.5091" style="stroke: #A80036; stroke-width: 1.0;"/><path d="M661.861,172.6271 C664.045,207.1261 667.003,253.8321 668.954,284.6491 " fill="none" style="stroke: #A80036; stroke-width: 1.0;"/><polygon fill="#A80036" points="661.036,159.5991,657.4231,165.8399,661.7942,171.5751,665.4071,165.3344,661.036,159.5991" style="stroke: #A80036; stroke-width: 1.0;"/><path d="M706.599,351.0331 C723.652,366.6941 744.19,385.9921 762,403.9531 C783.873,426.0121 807.602,451.9391 825.2,471.5821 " fill="none" style="stroke: #A80036; stroke-width: 1.0;"/><polygon fill="none" points="830.565,467.0811,838.626,486.6773,820.104,476.3854,830.565,467.0811" style="stroke: #A80036; stroke-width: 1.0;"/><path d="M479.566,183.5821 C526.995,216.6261 585.278,257.2311 624.989,284.8971 " fill="none" style="stroke: #A80036; stroke-width: 1.0;"/><polygon fill="#A80036" points="468.694,176.0081,471.3306,182.7199,478.5402,182.8676,475.9036,176.1558,468.694,176.0081" style="stroke: #A80036; stroke-width: 1.0;"/></g></svg>