<?xml version="1.0" encoding="UTF-8" standalone="yes"?><svg xmlns="http://www.w3.org/2000/svg" xmlns:xlink="http://www.w3.org/1999/xlink" height="622pt" style="width:931px;height:622px;" version="1.1" viewBox="0 0 931 622" width="931pt"><defs><filter height="300%" id="f1" width="300%" x="-1" y="-1"><feGaussianBlur result="blurOut" stdDeviation="2.0"/><feColorMatrix in="blurOut" result="blurOut2" type="matrix" values="0 0 0 0 0 0 0 0 0 0 0 0 0 0 0 0 0 0 .4 0"/><feOffset dx="4.0" dy="4.0" in="blurOut2" result="blurOut3"/><feBlend in="SourceGraphic" in2="blurOut3" mode="normal"/></filter></defs><g><polygon fill="#FFFFFF" filter="url(#f1)" points="427,296,487,296,494,318.2969,924,318.2969,924,615,427,615,427,296" style="stroke: #000000; stroke-width: 2.0;"/><line style="stroke: #000000; stroke-width: 2.0;" x1="427" x2="494" y1="318.2969" y2="318.2969"/><text fill="#000000" font-family="sans-serif" font-size="14" font-weight="bold" lengthAdjust="spacingAndGlyphs" textLength="54" x="430" y="311.9951">engine</text><polygon fill="#FFFFFF" filter="url(#f1)" points="249,162,332,162,339,184.2969,409,184.2969,409,271,249,271,249,162" style="stroke: #000000; stroke-width: 2.0;"/><line style="stroke: #000000; stroke-width: 2.0;" x1="249" x2="339" y1="184.2969" y2="184.2969"/><text fill="#000000" font-family="sans-serif" font-size="14" font-weight="bold" lengthAdjust="spacingAndGlyphs" textLength="77" x="252" y="177.9951">controller</text><rect fill="#FFFFFF" filter="url(#f1)" height="163" style="stroke: #000000; stroke-width: 2.0;" width="355" x="53" y="286.5"/><text fill="#000000" font-family="sans-serif" font-size="14" font-weight="bold" lengthAdjust="spacingAndGlyphs" textLength="37" x="212" y="304.4951">view</text><polygon fill="#FFFFFF" filter="url(#f1)" points="14,16,68,16,75,38.2969,447,38.2969,447,137,14,137,14,16" style="stroke: #000000; stroke-width: 2.0;"/><line style="stroke: #000000; stroke-width: 2.0;" x1="14" x2="75" y1="38.2969" y2="38.2969"/><text fill="#000000" font-family="sans-serif" font-size="14" font-weight="bold" lengthAdjust="spacingAndGlyphs" textLength="48" x="17" y="31.9951">model</text><polygon fill="#FFFFFF" filter="url(#f1)" points="460,43,701,43,708,65.2969,711,65.2969,711,110,460,110,460,43" style="stroke: #000000; stroke-width: 2.0;"/><line style="stroke: #000000; stroke-width: 2.0;" x1="460" x2="708" y1="65.2969" y2="65.2969"/><text fill="#000000" font-family="sans-serif" font-size="14" font-weight="bold" lengthAdjust="spacingAndGlyphs" textLength="235" x="463" y="58.9951">springframework.web.servlet</text><rect fill="#FEFECE" filter="url(#f1)" height="99.2188" style="stroke: #A80036; stroke-width: 1.5;" width="295" x="620.5" y="508"/><ellipse cx="736.25" cy="524" fill="#ADD1B2" rx="11" ry="11" style="stroke: #A80036; stroke-width: 1.0;"/><path d="M739.2188,529.6406 Q738.6406,529.9375 738,530.0859 Q737.3594,530.2344 736.6563,530.2344 Q734.1563,530.2344 732.8359,528.5859 Q731.5156,526.9375 731.5156,523.8125 Q731.5156,520.6875 732.8359,519.0313 Q734.1563,517.375 736.6563,517.375 Q737.3594,517.375 738.0078,517.5313 Q738.6563,517.6875 739.2188,517.9844 L739.2188,520.7031 Q738.5938,520.125 738,519.8516 Q737.4063,519.5781 736.7813,519.5781 Q735.4375,519.5781 734.75,520.6484 Q734.0625,521.7188 734.0625,523.8125 Q734.0625,525.9063 734.75,526.9766 Q735.4375,528.0469 736.7813,528.0469 Q737.4063,528.0469 738,527.7734 Q738.5938,527.5 739.2188,526.9219 L739.2188,529.6406 Z "/><text fill="#000000" font-family="sans-serif" font-size="12" lengthAdjust="spacingAndGlyphs" textLength="55" x="756.75" y="528.1543">EngineIO</text><line style="stroke: #A80036; stroke-width: 1.5;" x1="621.5" x2="914.5" y1="540" y2="540"/><text fill="#000000" font-family="sans-serif" font-size="11" lengthAdjust="spacingAndGlyphs" textLength="131" x="626.5" y="554.2104">BufferedReader reader</text><text fill="#000000" font-family="sans-serif" font-size="11" lengthAdjust="spacingAndGlyphs" textLength="119" x="626.5" y="567.0151">BufferedWriter writer</text><text fill="#000000" font-family="sans-serif" font-size="11" lengthAdjust="spacingAndGlyphs" textLength="134" x="626.5" y="579.8198">Process engineProcess</text><text fill="#000000" font-family="sans-serif" font-size="11" lengthAdjust="spacingAndGlyphs" textLength="283" x="626.5" y="592.6245">ConcurrentLinkedDeque&lt;engine.StatusMessage&gt;</text><line style="stroke: #A80036; stroke-width: 1.5;" x1="621.5" x2="914.5" y1="599.2188" y2="599.2188"/><rect fill="#FEFECE" filter="url(#f1)" height="99.2188" style="stroke: #A80036; stroke-width: 1.5;" width="207" x="708.5" y="336"/><ellipse cx="767.25" cy="352" fill="#ADD1B2" rx="11" ry="11" style="stroke: #A80036; stroke-width: 1.0;"/><path d="M770.2188,357.6406 Q769.6406,357.9375 769,358.0859 Q768.3594,358.2344 767.6563,358.2344 Q765.1563,358.2344 763.8359,356.5859 Q762.5156,354.9375 762.5156,351.8125 Q762.5156,348.6875 763.8359,347.0313 Q765.1563,345.375 767.6563,345.375 Q768.3594,345.375 769.0078,345.5313 Q769.6563,345.6875 770.2188,345.9844 L770.2188,348.7031 Q769.5938,348.125 769,347.8516 Q768.4063,347.5781 767.7813,347.5781 Q766.4375,347.5781 765.75,348.6484 Q765.0625,349.7188 765.0625,351.8125 Q765.0625,353.9063 765.75,354.9766 Q766.4375,356.0469 767.7813,356.0469 Q768.4063,356.0469 769,355.7734 Q769.5938,355.5 770.2188,354.9219 L770.2188,357.6406 Z "/><text fill="#000000" font-family="sans-serif" font-size="12" lengthAdjust="spacingAndGlyphs" textLength="81" x="787.75" y="356.1543">ChessEngine</text><line style="stroke: #A80036; stroke-width: 1.5;" x1="709.5" x2="914.5" y1="368" y2="368"/><rect fill="none" height="6" style="stroke: #C82930; stroke-width: 1.0;" width="6" x="716.5" y="376.9023"/><text fill="#000000" font-family="sans-serif" font-size="11" lengthAdjust="spacingAndGlyphs" textLength="110" x="728.5" y="382.2104">Thread readThread</text><rect fill="none" height="6" style="stroke: #C82930; stroke-width: 1.0;" width="6" x="716.5" y="389.707"/><text fill="#000000" font-family="sans-serif" font-size="11" lengthAdjust="spacingAndGlyphs" textLength="181" x="728.5" y="395.0151">ArrayList&lt;String&gt; currentBoard</text><line style="stroke: #A80036; stroke-width: 1.5;" x1="709.5" x2="914.5" y1="401.6094" y2="401.6094"/><ellipse cx="719.5" cy="413.5117" fill="#84BE84" rx="3" ry="3" style="stroke: #038048; stroke-width: 1.0;"/><text fill="#000000" font-family="sans-serif" font-size="11" lengthAdjust="spacingAndGlyphs" textLength="81" x="728.5" y="415.8198">validateMove()</text><ellipse cx="719.5" cy="426.3164" fill="#84BE84" rx="3" ry="3" style="stroke: #038048; stroke-width: 1.0;"/><text fill="#000000" font-family="sans-serif" font-size="11" lengthAdjust="spacingAndGlyphs" textLength="38" x="728.5" y="428.6245">close()</text><rect fill="#FEFECE" filter="url(#f1)" height="124.8281" style="stroke: #A80036; stroke-width: 1.5;" width="238" x="435" y="323"/><ellipse cx="501.25" cy="339" fill="#ADD1B2" rx="11" ry="11" style="stroke: #A80036; stroke-width: 1.0;"/><path d="M504.2188,344.6406 Q503.6406,344.9375 503,345.0859 Q502.3594,345.2344 501.6563,345.2344 Q499.1563,345.2344 497.8359,343.5859 Q496.5156,341.9375 496.5156,338.8125 Q496.5156,335.6875 497.8359,334.0313 Q499.1563,332.375 501.6563,332.375 Q502.3594,332.375 503.0078,332.5313 Q503.6563,332.6875 504.2188,332.9844 L504.2188,335.7031 Q503.5938,335.125 503,334.8516 Q502.4063,334.5781 501.7813,334.5781 Q500.4375,334.5781 499.75,335.6484 Q499.0625,336.7188 499.0625,338.8125 Q499.0625,340.9063 499.75,341.9766 Q500.4375,343.0469 501.7813,343.0469 Q502.4063,343.0469 503,342.7734 Q503.5938,342.5 504.2188,341.9219 L504.2188,344.6406 Z "/><text fill="#000000" font-family="sans-serif" font-size="12" lengthAdjust="spacingAndGlyphs" textLength="97" x="521.75" y="343.1543">StatusMessage</text><line style="stroke: #A80036; stroke-width: 1.5;" x1="436" x2="672" y1="355" y2="355"/><rect fill="none" height="6" style="stroke: #C82930; stroke-width: 1.0;" width="6" x="443" y="363.9023"/><text fill="#000000" font-family="sans-serif" font-size="11" lengthAdjust="spacingAndGlyphs" textLength="212" x="455" y="369.2104">ArrayList&lt;String&gt; engineOutputLines</text><line style="stroke: #A80036; stroke-width: 1.5;" x1="436" x2="672" y1="375.8047" y2="375.8047"/><ellipse cx="446" cy="387.707" fill="#84BE84" rx="3" ry="3" style="stroke: #038048; stroke-width: 1.0;"/><text fill="#000000" font-family="sans-serif" font-size="11" lengthAdjust="spacingAndGlyphs" textLength="122" x="455" y="390.0151">boolean invalidMove()</text><ellipse cx="446" cy="400.5117" fill="#84BE84" rx="3" ry="3" style="stroke: #038048; stroke-width: 1.0;"/><text fill="#000000" font-family="sans-serif" font-size="11" lengthAdjust="spacingAndGlyphs" textLength="114" x="455" y="402.8198">boolean whiteMate()</text><ellipse cx="446" cy="413.3164" fill="#84BE84" rx="3" ry="3" style="stroke: #038048; stroke-width: 1.0;"/><text fill="#000000" font-family="sans-serif" font-size="11" lengthAdjust="spacingAndGlyphs" textLength="113" x="455" y="415.6245">boolean blackMate()</text><ellipse cx="446" cy="426.1211" fill="#84BE84" rx="3" ry="3" style="stroke: #038048; stroke-width: 1.0;"/><text fill="#000000" font-family="sans-serif" font-size="11" lengthAdjust="spacingAndGlyphs" textLength="73" x="455" y="428.4292">boolean OK()</text><ellipse cx="446" cy="438.9258" fill="#84BE84" rx="3" ry="3" style="stroke: #038048; stroke-width: 1.0;"/><text fill="#000000" font-family="sans-serif" font-size="11" lengthAdjust="spacingAndGlyphs" textLength="130" x="455" y="441.2339">boolean boardUpdate()</text><rect fill="#FEFECE" filter="url(#f1)" height="73.6094" style="stroke: #A80036; stroke-width: 1.5;" width="143" x="257.5" y="189"/><ellipse cx="277.9" cy="205" fill="#ADD1B2" rx="11" ry="11" style="stroke: #A80036; stroke-width: 1.0;"/><path d="M280.8688,210.6406 Q280.2906,210.9375 279.65,211.0859 Q279.0094,211.2344 278.3063,211.2344 Q275.8063,211.2344 274.4859,209.5859 Q273.1656,207.9375 273.1656,204.8125 Q273.1656,201.6875 274.4859,200.0313 Q275.8063,198.375 278.3063,198.375 Q279.0094,198.375 279.6578,198.5313 Q280.3063,198.6875 280.8688,198.9844 L280.8688,201.7031 Q280.2438,201.125 279.65,200.8516 Q279.0563,200.5781 278.4313,200.5781 Q277.0875,200.5781 276.4,201.6484 Q275.7125,202.7188 275.7125,204.8125 Q275.7125,206.9063 276.4,207.9766 Q277.0875,209.0469 278.4313,209.0469 Q279.0563,209.0469 279.65,208.7734 Q280.2438,208.5 280.8688,207.9219 L280.8688,210.6406 Z "/><text fill="#000000" font-family="sans-serif" font-size="12" lengthAdjust="spacingAndGlyphs" textLength="99" x="293.1" y="209.1543">ChessController</text><line style="stroke: #A80036; stroke-width: 1.5;" x1="258.5" x2="399.5" y1="221" y2="221"/><line style="stroke: #A80036; stroke-width: 1.5;" x1="258.5" x2="399.5" y1="229" y2="229"/><ellipse cx="268.5" cy="240.9023" fill="#84BE84" rx="3" ry="3" style="stroke: #038048; stroke-width: 1.0;"/><text fill="#000000" font-family="sans-serif" font-size="11" lengthAdjust="spacingAndGlyphs" textLength="117" x="277.5" y="243.2104">requestChessForm()</text><ellipse cx="268.5" cy="253.707" fill="#84BE84" rx="3" ry="3" style="stroke: #038048; stroke-width: 1.0;"/><text fill="#000000" font-family="sans-serif" font-size="11" lengthAdjust="spacingAndGlyphs" textLength="112" x="277.5" y="256.0151">processMoveForm()</text><rect fill="#FEFECE" filter="url(#f1)" height="112.0234" style="stroke: #A80036; stroke-width: 1.5;" width="141" x="258.5" y="329.5"/><ellipse cx="294.2" cy="345.5" fill="#ADD1B2" rx="11" ry="11" style="stroke: #A80036; stroke-width: 1.0;"/><path d="M297.1688,351.1406 Q296.5906,351.4375 295.95,351.5859 Q295.3094,351.7344 294.6063,351.7344 Q292.1063,351.7344 290.7859,350.0859 Q289.4656,348.4375 289.4656,345.3125 Q289.4656,342.1875 290.7859,340.5313 Q292.1063,338.875 294.6063,338.875 Q295.3094,338.875 295.9578,339.0313 Q296.6063,339.1875 297.1688,339.4844 L297.1688,342.2031 Q296.5438,341.625 295.95,341.3516 Q295.3563,341.0781 294.7313,341.0781 Q293.3875,341.0781 292.7,342.1484 Q292.0125,343.2188 292.0125,345.3125 Q292.0125,347.4063 292.7,348.4766 Q293.3875,349.5469 294.7313,349.5469 Q295.3563,349.5469 295.95,349.2734 Q296.5438,349 297.1688,348.4219 L297.1688,351.1406 Z "/><text fill="#000000" font-family="sans-serif" font-size="12" lengthAdjust="spacingAndGlyphs" textLength="63" x="312.8" y="349.6543">Messages</text><line style="stroke: #A80036; stroke-width: 1.5;" x1="259.5" x2="398.5" y1="361.5" y2="361.5"/><text fill="#000000" font-family="sans-serif" font-size="11" lengthAdjust="spacingAndGlyphs" textLength="93" x="264.5" y="375.7104">String blackWins</text><text fill="#000000" font-family="sans-serif" font-size="11" lengthAdjust="spacingAndGlyphs" textLength="94" x="264.5" y="388.5151">String whiteWins</text><text fill="#000000" font-family="sans-serif" font-size="11" lengthAdjust="spacingAndGlyphs" textLength="103" x="264.5" y="401.3198">String invalidMove</text><text fill="#000000" font-family="sans-serif" font-size="11" lengthAdjust="spacingAndGlyphs" textLength="97" x="264.5" y="414.1245">String enterMove</text><line style="stroke: #A80036; stroke-width: 1.5;" x1="259.5" x2="398.5" y1="420.7188" y2="420.7188"/><ellipse cx="269.5" cy="432.6211" fill="#84BE84" rx="3" ry="3" style="stroke: #038048; stroke-width: 1.0;"/><text fill="#000000" font-family="sans-serif" font-size="11" lengthAdjust="spacingAndGlyphs" textLength="115" x="278.5" y="434.9292">String getMessage()</text><rect fill="#FEFECE" filter="url(#f1)" height="32" style="stroke: #A80036; stroke-width: 1.5;" width="162" x="61" y="369.5"/><ellipse cx="76" cy="385.5" fill="#DA70D6" rx="11" ry="11" style="stroke: #A80036; stroke-width: 1.0;"/><path d="M77.2031,385.6406 Q77.5625,385.7188 77.8359,385.9922 Q78.1094,386.2656 78.5,387.0469 L80.7344,391.5 L78.0469,391.5 L76.5469,388.375 Q76.4844,388.2344 76.375,388 Q75.7188,386.6094 74.8281,386.6094 L74.0469,386.6094 L74.0469,391.5 L71.6094,391.5 L71.6094,379.1094 L75.1406,379.1094 Q77.5313,379.1094 78.5703,379.9531 Q79.6094,380.7969 79.6094,382.7031 Q79.6094,383.9844 78.9922,384.7422 Q78.375,385.5 77.2031,385.6406 Z M74.0469,381.1719 L74.0469,384.5469 L75.2031,384.5469 Q76.2188,384.5469 76.6484,384.1484 Q77.0781,383.75 77.0781,382.8438 Q77.0781,381.9531 76.6484,381.5625 Q76.2188,381.1719 75.2031,381.1719 L74.0469,381.1719 Z "/><text fill="#000000" font-family="sans-serif" font-size="12" lengthAdjust="spacingAndGlyphs" textLength="130" x="90" y="389.6543">View Templates (JSP)</text><rect fill="#FEFECE" filter="url(#f1)" height="86.4141" style="stroke: #A80036; stroke-width: 1.5;" width="219" x="219.5" y="43"/><ellipse cx="306.25" cy="59" fill="#ADD1B2" rx="11" ry="11" style="stroke: #A80036; stroke-width: 1.0;"/><path d="M309.2188,64.6406 Q308.6406,64.9375 308,65.0859 Q307.3594,65.2344 306.6563,65.2344 Q304.1563,65.2344 302.8359,63.5859 Q301.5156,61.9375 301.5156,58.8125 Q301.5156,55.6875 302.8359,54.0313 Q304.1563,52.375 306.6563,52.375 Q307.3594,52.375 308.0078,52.5313 Q308.6563,52.6875 309.2188,52.9844 L309.2188,55.7031 Q308.5938,55.125 308,54.8516 Q307.4063,54.5781 306.7813,54.5781 Q305.4375,54.5781 304.75,55.6484 Q304.0625,56.7188 304.0625,58.8125 Q304.0625,60.9063 304.75,61.9766 Q305.4375,63.0469 306.7813,63.0469 Q307.4063,63.0469 308,62.7734 Q308.5938,62.5 309.2188,61.9219 L309.2188,64.6406 Z "/><text fill="#000000" font-family="sans-serif" font-size="12" lengthAdjust="spacingAndGlyphs" textLength="37" x="326.75" y="63.1543">Board</text><line style="stroke: #A80036; stroke-width: 1.5;" x1="220.5" x2="437.5" y1="75" y2="75"/><text fill="#000000" font-family="sans-serif" font-size="11" lengthAdjust="spacingAndGlyphs" textLength="207" x="225.5" y="89.2104">ArrayList&lt;ArrayList&lt;String&gt;&gt; board</text><line style="stroke: #A80036; stroke-width: 1.5;" x1="220.5" x2="437.5" y1="95.8047" y2="95.8047"/><ellipse cx="230.5" cy="107.707" fill="#84BE84" rx="3" ry="3" style="stroke: #038048; stroke-width: 1.0;"/><text fill="#000000" font-family="sans-serif" font-size="11" lengthAdjust="spacingAndGlyphs" textLength="158" x="239.5" y="110.0151">setState(ArrayList&lt;String&gt;)</text><ellipse cx="230.5" cy="120.5117" fill="#84BE84" rx="3" ry="3" style="stroke: #038048; stroke-width: 1.0;"/><text fill="#000000" font-family="sans-serif" font-size="11" lengthAdjust="spacingAndGlyphs" textLength="115" x="239.5" y="122.8198">getBoardAsStrings()</text><rect fill="#FEFECE" filter="url(#f1)" height="73.6094" style="stroke: #A80036; stroke-width: 1.5;" width="162" x="22" y="49"/><ellipse cx="82.75" cy="65" fill="#ADD1B2" rx="11" ry="11" style="stroke: #A80036; stroke-width: 1.0;"/><path d="M85.7188,70.6406 Q85.1406,70.9375 84.5,71.0859 Q83.8594,71.2344 83.1563,71.2344 Q80.6563,71.2344 79.3359,69.5859 Q78.0156,67.9375 78.0156,64.8125 Q78.0156,61.6875 79.3359,60.0313 Q80.6563,58.375 83.1563,58.375 Q83.8594,58.375 84.5078,58.5313 Q85.1563,58.6875 85.7188,58.9844 L85.7188,61.7031 Q85.0938,61.125 84.5,60.8516 Q83.9063,60.5781 83.2813,60.5781 Q81.9375,60.5781 81.25,61.6484 Q80.5625,62.7188 80.5625,64.8125 Q80.5625,66.9063 81.25,67.9766 Q81.9375,69.0469 83.2813,69.0469 Q83.9063,69.0469 84.5,68.7734 Q85.0938,68.5 85.7188,67.9219 L85.7188,70.6406 Z "/><text fill="#000000" font-family="sans-serif" font-size="12" lengthAdjust="spacingAndGlyphs" textLength="32" x="103.25" y="69.1543">Move</text><line style="stroke: #A80036; stroke-width: 1.5;" x1="23" x2="183" y1="81" y2="81"/><text fill="#000000" font-family="sans-serif" font-size="11" lengthAdjust="spacingAndGlyphs" textLength="123" x="28" y="95.2104">String requestToUser</text><text fill="#000000" font-family="sans-serif" font-size="11" lengthAdjust="spacingAndGlyphs" textLength="150" x="28" y="108.0151">String commandFromUser</text><line style="stroke: #A80036; stroke-width: 1.5;" x1="23" x2="183" y1="114.6094" y2="114.6094"/><rect fill="#FEFECE" filter="url(#f1)" height="32" style="stroke: #A80036; stroke-width: 1.5;" width="143" x="473.5" y="70"/><ellipse cx="488.5" cy="86" fill="#ADD1B2" rx="11" ry="11" style="stroke: #A80036; stroke-width: 1.0;"/><path d="M491.4688,91.6406 Q490.8906,91.9375 490.25,92.0859 Q489.6094,92.2344 488.9063,92.2344 Q486.4063,92.2344 485.0859,90.5859 Q483.7656,88.9375 483.7656,85.8125 Q483.7656,82.6875 485.0859,81.0313 Q486.4063,79.375 488.9063,79.375 Q489.6094,79.375 490.2578,79.5313 Q490.9063,79.6875 491.4688,79.9844 L491.4688,82.7031 Q490.8438,82.125 490.25,81.8516 Q489.6563,81.5781 489.0313,81.5781 Q487.6875,81.5781 487,82.6484 Q486.3125,83.7188 486.3125,85.8125 Q486.3125,87.9063 487,88.9766 Q487.6875,90.0469 489.0313,90.0469 Q489.6563,90.0469 490.25,89.7734 Q490.8438,89.5 491.4688,88.9219 L491.4688,91.6406 Z "/><text fill="#000000" font-family="sans-serif" font-size="12" lengthAdjust="spacingAndGlyphs" textLength="111" x="502.5" y="90.1543">DispatcherServlet</text><path d="M799.391,435.215 C794.559,453.888 788.981,475.436 783.881,495.142 " fill="none" style="stroke: #A80036; stroke-width: 1.0;"/><polygon fill="#A80036" points="780.61,507.778,785.9862,502.9721,783.6177,496.1611,778.2416,500.9669,780.61,507.778" style="stroke: #A80036; stroke-width: 1.0;"/><path d="M329,263.134 C329,281.218 329,303.593 329,324.186 " fill="none" style="stroke: #A80036; stroke-width: 1.0;"/><polygon fill="#A80036" points="329,329.38,333,320.38,329,324.38,325,320.38,329,329.38" style="stroke: #A80036; stroke-width: 1.0;"/><path d="M272.01,263.261 C261.445,270.614 250.693,278.542 241,286.5 C210.206,311.782 178.046,345.11 159.032,365.658 " fill="none" style="stroke: #A80036; stroke-width: 1.0;"/><polygon fill="#A80036" points="155.637,369.341,164.6775,365.4333,159.0253,365.6641,158.7945,360.012,155.637,369.341" style="stroke: #A80036; stroke-width: 1.0;"/><path d="M329,142.497 C329,158.055 329,174.566 329,188.697 " fill="none" style="stroke: #A80036; stroke-width: 1.0;"/><polygon fill="#A80036" points="329,129.154,325,135.154,329,141.154,333,135.154,329,129.154" style="stroke: #A80036; stroke-width: 1.0;"/><path d="M173.254,129.898 C204.249,148.825 240.276,170.824 269.869,188.894 " fill="none" style="stroke: #A80036; stroke-width: 1.0;"/><polygon fill="#A80036" points="162.084,123.078,165.1207,129.6185,172.326,129.3311,169.2894,122.7905,162.084,123.078" style="stroke: #A80036; stroke-width: 1.0;"/><path d="M504.491,112.881 C470.952,134.308 422.921,164.995 385.584,188.849 " fill="none" style="stroke: #A80036; stroke-width: 1.0;"/><polygon fill="none" points="500.85,106.9,521.473,102.031,508.388,118.698,500.85,106.9" style="stroke: #A80036; stroke-width: 1.0;"/><path d="M400.807,228.055 C476.166,231.572 596.576,244.125 691,286.5 C713.37,296.539 735.078,311.767 753.785,327.246 " fill="none" style="stroke: #A80036; stroke-width: 1.0;"/><polygon fill="#A80036" points="763.854,335.84,761.8876,328.9022,754.7271,328.049,756.6936,334.9868,763.854,335.84" style="stroke: #A80036; stroke-width: 1.0;"/></g></svg>