<?xml version="1.0" encoding="UTF-8" standalone="yes"?><svg xmlns="http://www.w3.org/2000/svg" xmlns:xlink="http://www.w3.org/1999/xlink" height="687.6pt" style="width:1345px;height:687px;" version="1.1" viewBox="0 0 1345 687" width="1345.2001pt"><defs><filter height="300%" id="f1" width="300%" x="-1" y="-1"><feGaussianBlur result="blurOut" stdDeviation="2.4000000953674316"/><feColorMatrix in="blurOut" result="blurOut2" type="matrix" values="0 0 0 0 0 0 0 0 0 0 0 0 0 0 0 0 0 0 .4 0"/><feOffset dx="4.800000190734863" dy="4.800000190734863" in="blurOut2" result="blurOut3"/><feBlend in="SourceGraphic" in2="blurOut3" mode="normal"/></filter></defs><g><text fill="#000000" font-family="sans-serif" font-size="21.6" lengthAdjust="spacingAndGlyphs" textLength="334.8" x="510.6" y="20.0496">UML Diagram of Chess Website</text><polygon fill="#FFFFFF" filter="url(#f1)" points="16.8,44.3438,88.8,44.3438,97.2,71.1,613.2,71.1,613.2,473.9438,16.8,473.9438,16.8,44.3438" style="stroke: #000000; stroke-width: 2.4000000953674316;"/><line style="stroke: #000000; stroke-width: 2.4000000953674316;" x1="16.8" x2="97.2" y1="71.1" y2="71.1"/><text fill="#000000" font-family="sans-serif" font-size="16.8" font-weight="bold" lengthAdjust="spacingAndGlyphs" textLength="64.8" x="20.4" y="63.5379">engine</text><polygon fill="#FFFFFF" filter="url(#f1)" points="715.2,309.5438,814.8,309.5438,823.2,336.3,907.2,336.3,907.2,430.7438,715.2,430.7438,715.2,309.5438" style="stroke: #000000; stroke-width: 2.4000000953674316;"/><line style="stroke: #000000; stroke-width: 2.4000000953674316;" x1="715.2" x2="823.2" y1="336.3" y2="336.3"/><text fill="#000000" font-family="sans-serif" font-size="16.8" font-weight="bold" lengthAdjust="spacingAndGlyphs" textLength="92.4" x="718.8" y="328.7379">controller</text><rect fill="#FFFFFF" filter="url(#f1)" height="195.6" style="stroke: #000000; stroke-width: 2.4000000953674316;" width="426" x="484.8" y="484.7438"/><text fill="#000000" font-family="sans-serif" font-size="16.8" font-weight="bold" lengthAdjust="spacingAndGlyphs" textLength="44.4" x="675.6" y="506.3379">view</text><polygon fill="#FFFFFF" filter="url(#f1)" points="675.6,67.7438,740.4,67.7438,748.8,94.5,1226.4,94.5,1226.4,212.9438,675.6,212.9438,675.6,67.7438" style="stroke: #000000; stroke-width: 2.4000000953674316;"/><line style="stroke: #000000; stroke-width: 2.4000000953674316;" x1="675.6" x2="748.8" y1="94.5" y2="94.5"/><text fill="#000000" font-family="sans-serif" font-size="16.8" font-weight="bold" lengthAdjust="spacingAndGlyphs" textLength="57.6" x="679.2" y="86.9379">model</text><rect fill="#FEFECE" filter="url(#f1)" height="165.1594" style="stroke: #0000FF; stroke-width: 1.8000000715255737;" width="381.6" x="216" y="298.7438"/><ellipse cx="368.7" cy="317.9438" fill="#ADD1B2" rx="13.2" ry="13.2" style="stroke: #0000FF; stroke-width: 1.2000000476837158;"/><path d="M372.2625,324.7125 Q371.5688,325.0688 370.8,325.2469 Q370.0313,325.425 369.1875,325.425 Q366.1875,325.425 364.6031,323.4469 Q363.0188,321.4688 363.0188,317.7188 Q363.0188,313.9688 364.6031,311.9813 Q366.1875,309.9938 369.1875,309.9938 Q370.0313,309.9938 370.8094,310.1813 Q371.5875,310.3688 372.2625,310.725 L372.2625,313.9875 Q371.5125,313.2938 370.8,312.9656 Q370.0875,312.6375 369.3375,312.6375 Q367.725,312.6375 366.9,313.9219 Q366.075,315.2063 366.075,317.7188 Q366.075,320.2313 366.9,321.5156 Q367.725,322.8 369.3375,322.8 Q370.0875,322.8 370.8,322.4719 Q371.5125,322.1438 372.2625,321.45 L372.2625,324.7125 Z "/><text fill="#000000" font-family="sans-serif" font-size="14.4" lengthAdjust="spacingAndGlyphs" textLength="66" x="393.3" y="322.9289">EngineIO</text><line style="stroke: #0000FF; stroke-width: 1.8000000715255737;" x1="217.2" x2="596.4" y1="337.1438" y2="337.1438"/><text fill="#000000" font-family="sans-serif" font-size="13.2" lengthAdjust="spacingAndGlyphs" textLength="157.2" x="223.2" y="354.1963">BufferedReader reader</text><text fill="#000000" font-family="sans-serif" font-size="13.2" lengthAdjust="spacingAndGlyphs" textLength="142.8" x="223.2" y="369.5619">BufferedWriter writer</text><text fill="#000000" font-family="sans-serif" font-size="13.2" lengthAdjust="spacingAndGlyphs" textLength="160.8" x="223.2" y="384.9276">Process engineProcess</text><text fill="#000000" font-family="sans-serif" font-size="13.2" lengthAdjust="spacingAndGlyphs" textLength="339.6" x="223.2" y="400.2932">ConcurrentLinkedDeque&lt;engine.StatusMessage&gt;</text><line style="stroke: #0000FF; stroke-width: 1.8000000715255737;" x1="217.2" x2="596.4" y1="408.2063" y2="408.2063"/><rect fill="#F24D5C" height="7.2" style="stroke: #C82930; stroke-width: 1.2000000476837158;" width="7.2" x="225.6" y="418.8891"/><text fill="#000000" font-family="sans-serif" font-size="13.2" lengthAdjust="spacingAndGlyphs" textLength="331.2" x="240" y="425.2588">synchronized addReplyToQueue(StatusMessage)</text><polygon fill="#FFFF44" points="229.2,431.8547,234,436.6547,229.2,441.4547,224.4,436.6547" style="stroke: #B38D22; stroke-width: 1.2000000476837158;"/><text fill="#000000" font-family="sans-serif" font-size="13.2" lengthAdjust="spacingAndGlyphs" textLength="350.4" x="240" y="440.6244">synchronized StatusMessage getReplyFromQueue()</text><polygon fill="#FFFF44" points="229.2,447.2203,234,452.0203,229.2,456.8203,224.4,452.0203" style="stroke: #B38D22; stroke-width: 1.2000000476837158;"/><text fill="#000000" font-family="sans-serif" font-size="13.2" lengthAdjust="spacingAndGlyphs" textLength="153.6" x="240" y="455.9901">sendCommand(String)</text><rect fill="#FEFECE" filter="url(#f1)" height="119.0625" style="stroke: #0000FF; stroke-width: 1.8000000715255737;" width="248.4" x="354.6" y="92.3438"/><ellipse cx="425.1" cy="111.5438" fill="#ADD1B2" rx="13.2" ry="13.2" style="stroke: #0000FF; stroke-width: 1.2000000476837158;"/><path d="M428.6625,118.3125 Q427.9688,118.6688 427.2,118.8469 Q426.4313,119.025 425.5875,119.025 Q422.5875,119.025 421.0031,117.0469 Q419.4188,115.0688 419.4188,111.3188 Q419.4188,107.5688 421.0031,105.5813 Q422.5875,103.5938 425.5875,103.5938 Q426.4313,103.5938 427.2094,103.7813 Q427.9875,103.9688 428.6625,104.325 L428.6625,107.5875 Q427.9125,106.8938 427.2,106.5656 Q426.4875,106.2375 425.7375,106.2375 Q424.125,106.2375 423.3,107.5219 Q422.475,108.8063 422.475,111.3188 Q422.475,113.8313 423.3,115.1156 Q424.125,116.4 425.7375,116.4 Q426.4875,116.4 427.2,116.0719 Q427.9125,115.7438 428.6625,115.05 L428.6625,118.3125 Z "/><text fill="#000000" font-family="sans-serif" font-size="14.4" lengthAdjust="spacingAndGlyphs" textLength="97.2" x="449.7" y="116.5289">ChessEngine</text><line style="stroke: #0000FF; stroke-width: 1.8000000715255737;" x1="355.8" x2="601.8" y1="130.7438" y2="130.7438"/><rect fill="none" height="7.2" style="stroke: #C82930; stroke-width: 1.2000000476837158;" width="7.2" x="364.2" y="141.4266"/><text fill="#000000" font-family="sans-serif" font-size="13.2" lengthAdjust="spacingAndGlyphs" textLength="132" x="378.6" y="147.7963">Thread readThread</text><rect fill="none" height="7.2" style="stroke: #C82930; stroke-width: 1.2000000476837158;" width="7.2" x="364.2" y="156.7922"/><text fill="#000000" font-family="sans-serif" font-size="13.2" lengthAdjust="spacingAndGlyphs" textLength="217.2" x="378.6" y="163.1619">ArrayList&lt;String&gt; currentBoard</text><line style="stroke: #0000FF; stroke-width: 1.8000000715255737;" x1="355.8" x2="601.8" y1="171.075" y2="171.075"/><ellipse cx="367.8" cy="185.3578" fill="#84BE84" rx="3.6" ry="3.6" style="stroke: #038048; stroke-width: 1.2000000476837158;"/><text fill="#000000" font-family="sans-serif" font-size="13.2" lengthAdjust="spacingAndGlyphs" textLength="213.6" x="378.6" y="188.1275">MoveResult validateMove(Move)</text><ellipse cx="367.8" cy="200.7234" fill="#84BE84" rx="3.6" ry="3.6" style="stroke: #038048; stroke-width: 1.2000000476837158;"/><text fill="#000000" font-family="sans-serif" font-size="13.2" lengthAdjust="spacingAndGlyphs" textLength="78" x="378.6" y="203.4932">void close()</text><rect fill="#FEFECE" filter="url(#f1)" height="149.7938" style="stroke: #0000FF; stroke-width: 1.8000000715255737;" width="285.6" x="26.4" y="76.7438"/><ellipse cx="105.9" cy="95.9438" fill="#ADD1B2" rx="13.2" ry="13.2" style="stroke: #0000FF; stroke-width: 1.2000000476837158;"/><path d="M109.4625,102.7125 Q108.7688,103.0688 108,103.2469 Q107.2313,103.425 106.3875,103.425 Q103.3875,103.425 101.8031,101.4469 Q100.2188,99.4688 100.2188,95.7188 Q100.2188,91.9688 101.8031,89.9813 Q103.3875,87.9938 106.3875,87.9938 Q107.2313,87.9938 108.0094,88.1813 Q108.7875,88.3688 109.4625,88.725 L109.4625,91.9875 Q108.7125,91.2938 108,90.9656 Q107.2875,90.6375 106.5375,90.6375 Q104.925,90.6375 104.1,91.9219 Q103.275,93.2063 103.275,95.7188 Q103.275,98.2313 104.1,99.5156 Q104.925,100.8 106.5375,100.8 Q107.2875,100.8 108,100.4719 Q108.7125,100.1438 109.4625,99.45 L109.4625,102.7125 Z "/><text fill="#000000" font-family="sans-serif" font-size="14.4" lengthAdjust="spacingAndGlyphs" textLength="116.4" x="130.5" y="100.9289">StatusMessage</text><line style="stroke: #0000FF; stroke-width: 1.8000000715255737;" x1="27.6" x2="310.8" y1="115.1438" y2="115.1438"/><rect fill="none" height="7.2" style="stroke: #C82930; stroke-width: 1.2000000476837158;" width="7.2" x="36" y="125.8266"/><text fill="#000000" font-family="sans-serif" font-size="13.2" lengthAdjust="spacingAndGlyphs" textLength="254.4" x="50.4" y="132.1963">ArrayList&lt;String&gt; engineOutputLines</text><line style="stroke: #0000FF; stroke-width: 1.8000000715255737;" x1="27.6" x2="310.8" y1="140.1094" y2="140.1094"/><ellipse cx="39.6" cy="154.3922" fill="#84BE84" rx="3.6" ry="3.6" style="stroke: #038048; stroke-width: 1.2000000476837158;"/><text fill="#000000" font-family="sans-serif" font-size="13.2" lengthAdjust="spacingAndGlyphs" textLength="146.4" x="50.4" y="157.1619">boolean invalidMove()</text><ellipse cx="39.6" cy="169.7578" fill="#84BE84" rx="3.6" ry="3.6" style="stroke: #038048; stroke-width: 1.2000000476837158;"/><text fill="#000000" font-family="sans-serif" font-size="13.2" lengthAdjust="spacingAndGlyphs" textLength="136.8" x="50.4" y="172.5275">boolean whiteMate()</text><ellipse cx="39.6" cy="185.1234" fill="#84BE84" rx="3.6" ry="3.6" style="stroke: #038048; stroke-width: 1.2000000476837158;"/><text fill="#000000" font-family="sans-serif" font-size="13.2" lengthAdjust="spacingAndGlyphs" textLength="135.6" x="50.4" y="187.8932">boolean blackMate()</text><ellipse cx="39.6" cy="200.4891" fill="#84BE84" rx="3.6" ry="3.6" style="stroke: #038048; stroke-width: 1.2000000476837158;"/><text fill="#000000" font-family="sans-serif" font-size="13.2" lengthAdjust="spacingAndGlyphs" textLength="87.6" x="50.4" y="203.2588">boolean OK()</text><ellipse cx="39.6" cy="215.8547" fill="#84BE84" rx="3.6" ry="3.6" style="stroke: #038048; stroke-width: 1.2000000476837158;"/><text fill="#000000" font-family="sans-serif" font-size="13.2" lengthAdjust="spacingAndGlyphs" textLength="156" x="50.4" y="218.6244">boolean boardUpdate()</text><rect fill="#FEFECE" filter="url(#f1)" height="78.7313" style="stroke: #0000FF; stroke-width: 1.8000000715255737;" width="171.6" x="725.4" y="341.9438"/><ellipse cx="749.88" cy="361.1438" fill="#ADD1B2" rx="13.2" ry="13.2" style="stroke: #0000FF; stroke-width: 1.2000000476837158;"/><path d="M753.4425,367.9125 Q752.7488,368.2688 751.98,368.4469 Q751.2113,368.625 750.3675,368.625 Q747.3675,368.625 745.7832,366.6469 Q744.1988,364.6688 744.1988,360.9188 Q744.1988,357.1688 745.7832,355.1813 Q747.3675,353.1938 750.3675,353.1938 Q751.2113,353.1938 751.9894,353.3813 Q752.7675,353.5688 753.4425,353.925 L753.4425,357.1875 Q752.6925,356.4938 751.98,356.1656 Q751.2675,355.8375 750.5175,355.8375 Q748.905,355.8375 748.08,357.1219 Q747.255,358.4063 747.255,360.9188 Q747.255,363.4313 748.08,364.7156 Q748.905,366 750.5175,366 Q751.2675,366 751.98,365.6719 Q752.6925,365.3438 753.4425,364.65 L753.4425,367.9125 Z "/><text fill="#000000" font-family="sans-serif" font-size="14.4" lengthAdjust="spacingAndGlyphs" textLength="118.8" x="768.12" y="366.1289">ChessController</text><line style="stroke: #0000FF; stroke-width: 1.8000000715255737;" x1="726.6" x2="895.8" y1="380.3438" y2="380.3438"/><ellipse cx="738.6" cy="394.6266" fill="#84BE84" rx="3.6" ry="3.6" style="stroke: #038048; stroke-width: 1.2000000476837158;"/><text fill="#000000" font-family="sans-serif" font-size="13.2" lengthAdjust="spacingAndGlyphs" textLength="140.4" x="749.4" y="397.3963">requestChessForm()</text><ellipse cx="738.6" cy="409.9922" fill="#84BE84" rx="3.6" ry="3.6" style="stroke: #038048; stroke-width: 1.2000000476837158;"/><text fill="#000000" font-family="sans-serif" font-size="13.2" lengthAdjust="spacingAndGlyphs" textLength="134.4" x="749.4" y="412.7619">processMoveForm()</text><rect fill="#FEFECE" filter="url(#f1)" height="134.4281" style="stroke: #0000FF; stroke-width: 1.8000000715255737;" width="169.2" x="731.4" y="536.3438"/><ellipse cx="774.24" cy="555.5438" fill="#ADD1B2" rx="13.2" ry="13.2" style="stroke: #0000FF; stroke-width: 1.2000000476837158;"/><path d="M777.8025,562.3125 Q777.1088,562.6688 776.34,562.8469 Q775.5713,563.025 774.7275,563.025 Q771.7275,563.025 770.1432,561.0469 Q768.5588,559.0688 768.5588,555.3188 Q768.5588,551.5688 770.1432,549.5813 Q771.7275,547.5938 774.7275,547.5938 Q775.5713,547.5938 776.3494,547.7813 Q777.1275,547.9688 777.8025,548.325 L777.8025,551.5875 Q777.0525,550.8938 776.34,550.5656 Q775.6275,550.2375 774.8775,550.2375 Q773.265,550.2375 772.44,551.5219 Q771.615,552.8063 771.615,555.3188 Q771.615,557.8313 772.44,559.1156 Q773.265,560.4 774.8775,560.4 Q775.6275,560.4 776.34,560.0719 Q777.0525,559.7438 777.8025,559.05 L777.8025,562.3125 Z "/><text fill="#000000" font-family="sans-serif" font-size="14.4" lengthAdjust="spacingAndGlyphs" textLength="75.6" x="796.56" y="560.5289">Messages</text><line style="stroke: #0000FF; stroke-width: 1.8000000715255737;" x1="732.6" x2="899.4" y1="574.7438" y2="574.7438"/><text fill="#000000" font-family="sans-serif" font-size="13.2" lengthAdjust="spacingAndGlyphs" textLength="111.6" x="738.6" y="591.7963">String blackWins</text><text fill="#000000" font-family="sans-serif" font-size="13.2" lengthAdjust="spacingAndGlyphs" textLength="112.8" x="738.6" y="607.1619">String whiteWins</text><text fill="#000000" font-family="sans-serif" font-size="13.2" lengthAdjust="spacingAndGlyphs" textLength="123.6" x="738.6" y="622.5276">String invalidMove</text><text fill="#000000" font-family="sans-serif" font-size="13.2" lengthAdjust="spacingAndGlyphs" textLength="116.4" x="738.6" y="637.8932">String enterMove</text><line style="stroke: #0000FF; stroke-width: 1.8000000715255737;" x1="732.6" x2="899.4" y1="645.8063" y2="645.8063"/><ellipse cx="744.6" cy="660.0891" fill="#84BE84" rx="3.6" ry="3.6" style="stroke: #038048; stroke-width: 1.2000000476837158;"/><text fill="#000000" font-family="sans-serif" font-size="13.2" lengthAdjust="spacingAndGlyphs" textLength="138" x="755.4" y="662.8588">String getMessage()</text><rect fill="#FEFECE" filter="url(#f1)" height="38.4" style="stroke: #0000FF; stroke-width: 1.8000000715255737;" width="194.4" x="494.4" y="584.3438"/><ellipse cx="512.4" cy="603.5438" fill="#DA70D6" rx="13.2" ry="13.2" style="stroke: #0000FF; stroke-width: 1.2000000476837158;"/><path d="M513.8438,603.7125 Q514.275,603.8063 514.6031,604.1344 Q514.9313,604.4625 515.4,605.4 L518.0813,610.7438 L514.8563,610.7438 L513.0563,606.9938 Q512.9813,606.825 512.85,606.5438 Q512.0625,604.875 510.9938,604.875 L510.0563,604.875 L510.0563,610.7438 L507.1313,610.7438 L507.1313,595.875 L511.3688,595.875 Q514.2375,595.875 515.4844,596.8875 Q516.7313,597.9 516.7313,600.1875 Q516.7313,601.725 515.9906,602.6344 Q515.25,603.5438 513.8438,603.7125 Z M510.0563,598.35 L510.0563,602.4 L511.4438,602.4 Q512.6625,602.4 513.1781,601.9219 Q513.6938,601.4438 513.6938,600.3563 Q513.6938,599.2875 513.1781,598.8188 Q512.6625,598.35 511.4438,598.35 L510.0563,598.35 Z "/><text fill="#000000" font-family="sans-serif" font-size="14.4" lengthAdjust="spacingAndGlyphs" textLength="156" x="529.2" y="608.5289">View Templates (JSP)</text><rect fill="#FEFECE" filter="url(#f1)" height="103.6969" style="stroke: #0000FF; stroke-width: 1.8000000715255737;" width="279.6" x="937.8" y="100.1438"/><ellipse cx="1050.3" cy="119.3438" fill="#ADD1B2" rx="13.2" ry="13.2" style="stroke: #0000FF; stroke-width: 1.2000000476837158;"/><path d="M1053.8625,126.1125 Q1053.1688,126.4688 1052.4,126.6469 Q1051.6313,126.825 1050.7875,126.825 Q1047.7875,126.825 1046.2032,124.8469 Q1044.6188,122.8688 1044.6188,119.1188 Q1044.6188,115.3688 1046.2032,113.3813 Q1047.7875,111.3938 1050.7875,111.3938 Q1051.6313,111.3938 1052.4094,111.5813 Q1053.1875,111.7688 1053.8625,112.125 L1053.8625,115.3875 Q1053.1125,114.6938 1052.4,114.3656 Q1051.6875,114.0375 1050.9375,114.0375 Q1049.325,114.0375 1048.5,115.3219 Q1047.675,116.6063 1047.675,119.1188 Q1047.675,121.6313 1048.5,122.9156 Q1049.325,124.2 1050.9375,124.2 Q1051.6875,124.2 1052.4,123.8719 Q1053.1125,123.5438 1053.8625,122.85 L1053.8625,126.1125 Z "/><text fill="#000000" font-family="sans-serif" font-size="14.4" lengthAdjust="spacingAndGlyphs" textLength="44.4" x="1074.9" y="124.3289">Board</text><line style="stroke: #0000FF; stroke-width: 1.8000000715255737;" x1="939" x2="1216.2" y1="138.5438" y2="138.5438"/><rect fill="none" height="7.2" style="stroke: #C82930; stroke-width: 1.2000000476837158;" width="7.2" x="947.4" y="149.2266"/><text fill="#000000" font-family="sans-serif" font-size="13.2" lengthAdjust="spacingAndGlyphs" textLength="248.4" x="961.8" y="155.5963">ArrayList&lt;ArrayList&lt;String&gt;&gt; board</text><line style="stroke: #0000FF; stroke-width: 1.8000000715255737;" x1="939" x2="1216.2" y1="163.5094" y2="163.5094"/><ellipse cx="951" cy="177.7922" fill="#84BE84" rx="3.6" ry="3.6" style="stroke: #038048; stroke-width: 1.2000000476837158;"/><text fill="#000000" font-family="sans-serif" font-size="13.2" lengthAdjust="spacingAndGlyphs" textLength="189.6" x="961.8" y="180.5619">setState(ArrayList&lt;String&gt;)</text><ellipse cx="951" cy="193.1578" fill="#84BE84" rx="3.6" ry="3.6" style="stroke: #038048; stroke-width: 1.2000000476837158;"/><text fill="#000000" font-family="sans-serif" font-size="13.2" lengthAdjust="spacingAndGlyphs" textLength="138" x="961.8" y="195.9275">getBoardAsStrings()</text><rect fill="#FEFECE" filter="url(#f1)" height="78.7313" style="stroke: #0000FF; stroke-width: 1.8000000715255737;" width="211.2" x="685.2" y="112.1438"/><ellipse cx="766.5" cy="131.3438" fill="#ADD1B2" rx="13.2" ry="13.2" style="stroke: #0000FF; stroke-width: 1.2000000476837158;"/><path d="M770.0625,138.1125 Q769.3688,138.4688 768.6,138.6469 Q767.8313,138.825 766.9875,138.825 Q763.9875,138.825 762.4032,136.8469 Q760.8188,134.8688 760.8188,131.1188 Q760.8188,127.3688 762.4032,125.3813 Q763.9875,123.3938 766.9875,123.3938 Q767.8313,123.3938 768.6094,123.5813 Q769.3875,123.7688 770.0625,124.125 L770.0625,127.3875 Q769.3125,126.6938 768.6,126.3656 Q767.8875,126.0375 767.1375,126.0375 Q765.525,126.0375 764.7,127.3219 Q763.875,128.6063 763.875,131.1188 Q763.875,133.6313 764.7,134.9156 Q765.525,136.2 767.1375,136.2 Q767.8875,136.2 768.6,135.8719 Q769.3125,135.5438 770.0625,134.85 L770.0625,138.1125 Z "/><text fill="#000000" font-family="sans-serif" font-size="14.4" lengthAdjust="spacingAndGlyphs" textLength="38.4" x="791.1" y="136.3289">Move</text><line style="stroke: #0000FF; stroke-width: 1.8000000715255737;" x1="686.4" x2="895.2" y1="150.5438" y2="150.5438"/><rect fill="none" height="7.2" style="stroke: #C82930; stroke-width: 1.2000000476837158;" width="7.2" x="694.8" y="161.2266"/><text fill="#000000" font-family="sans-serif" font-size="13.2" lengthAdjust="spacingAndGlyphs" textLength="147.6" x="709.2" y="167.5963">String requestToUser</text><rect fill="none" height="7.2" style="stroke: #C82930; stroke-width: 1.2000000476837158;" width="7.2" x="694.8" y="176.5922"/><text fill="#000000" font-family="sans-serif" font-size="13.2" lengthAdjust="spacingAndGlyphs" textLength="180" x="709.2" y="182.9619">String commandFromUser</text><rect fill="#FEFECE" filter="url(#f1)" height="38.4" style="stroke: #0000FF; stroke-width: 1.8000000715255737;" width="109.2" x="342.6" y="584.3438"/><ellipse cx="360.6" cy="603.5438" fill="#B4A7E5" rx="13.2" ry="13.2" style="stroke: #0000FF; stroke-width: 1.2000000476837158;"/><path d="M355.7063,598.4625 L355.7063,595.875 L364.575,595.875 L364.575,598.4625 L361.6125,598.4625 L361.6125,608.1563 L364.575,608.1563 L364.575,610.7438 L355.7063,610.7438 L355.7063,608.1563 L358.6688,608.1563 L358.6688,598.4625 L355.7063,598.4625 Z "/><text fill="#000000" font-family="sans-serif" font-size="14.4" font-style="italic" lengthAdjust="spacingAndGlyphs" textLength="70.8" x="377.4" y="608.5289">Runnable</text><rect fill="#FEFECE" filter="url(#f1)" height="38.4" style="stroke: #0000FF; stroke-width: 1.8000000715255737;" width="391.2" x="943.2" y="584.3438"/><ellipse cx="961.2" cy="603.5438" fill="#ADD1B2" rx="13.2" ry="13.2" style="stroke: #0000FF; stroke-width: 1.2000000476837158;"/><path d="M964.7625,610.3125 Q964.0688,610.6688 963.3,610.8469 Q962.5313,611.025 961.6875,611.025 Q958.6875,611.025 957.1032,609.0469 Q955.5188,607.0688 955.5188,603.3188 Q955.5188,599.5688 957.1032,597.5813 Q958.6875,595.5938 961.6875,595.5938 Q962.5313,595.5938 963.3094,595.7813 Q964.0875,595.9688 964.7625,596.325 L964.7625,599.5875 Q964.0125,598.8938 963.3,598.5656 Q962.5875,598.2375 961.8375,598.2375 Q960.225,598.2375 959.4,599.5219 Q958.575,600.8063 958.575,603.3188 Q958.575,605.8313 959.4,607.1156 Q960.225,608.4 961.8375,608.4 Q962.5875,608.4 963.3,608.0719 Q964.0125,607.7438 964.7625,607.05 L964.7625,610.3125 Z "/><text fill="#000000" font-family="sans-serif" font-size="14.4" lengthAdjust="spacingAndGlyphs" textLength="352.8" x="978" y="608.5289">springframework.web.servlet.DispatcherServlet</text><path d="M403.2252,464.5142 C401.802,497.0858 400.2228,533.1842 399.0396,560.2646 " fill="none" style="stroke: #800000; stroke-width: 1.2000000476837158;"/><polygon fill="none" points="407.43,560.675,397.9896,584.2855,390.6456,559.9418,407.43,560.675" style="stroke: #800000; stroke-width: 1.2000000476837158;"/><path d="M460.2588,211.505 C453.3228,233.4098 445.2468,258.917 437.5044,283.3682 " fill="none" style="stroke: #800000; stroke-width: 1.2000000476837158;"/><polygon fill="#800000" points="432.7404,298.415,439.4899,292.9997,437.0871,284.6867,430.3376,290.1019,432.7404,298.415" style="stroke: #800000; stroke-width: 1.2000000476837158;"/><path d="M812.0472,421.4978 C812.7012,451.4126 813.624,493.6562 814.4136,529.793 " fill="none" style="stroke: #800000; stroke-width: 1.2000000476837158;"/><polygon fill="#800000" points="814.5504,535.9994,819.1148,525.0977,814.4201,530.0008,809.517,525.3062,814.5504,535.9994" style="stroke: #800000; stroke-width: 1.2000000476837158;"/><path d="M772.446,421.4978 C726.5364,467.4074 651.5904,542.3534 614.2416,579.7022 " fill="none" style="stroke: #800000; stroke-width: 1.2000000476837158;"/><polygon fill="#800000" points="609.8772,584.0661,620.9089,579.8255,614.1206,579.8242,614.1219,573.036,609.8772,584.0661" style="stroke: #800000; stroke-width: 1.2000000476837158;"/><path d="M1006.3764,213.7406 C958.7712,254.3762 897.5748,306.6134 856.5084,341.6678 " fill="none" style="stroke: #800000; stroke-width: 1.2000000476837158;"/><polygon fill="#800000" points="1018.4772,203.411,1009.8847,204.4348,1007.525,212.7602,1016.1175,211.7363,1018.4772,203.411" style="stroke: #800000; stroke-width: 1.2000000476837158;"/><path d="M795.6636,207.1526 C799.3764,248.5514 804.4044,304.5986 807.7224,341.579 " fill="none" style="stroke: #800000; stroke-width: 1.2000000476837158;"/><polygon fill="#800000" points="794.2608,191.519,790.1233,199.119,795.5474,205.8614,799.6849,198.2613,794.2608,191.519" style="stroke: #800000; stroke-width: 1.2000000476837158;"/><path d="M576.8904,220.049 C634.9176,259.7462 706.3404,308.6078 754.9716,341.8766 " fill="none" style="stroke: #800000; stroke-width: 1.2000000476837158;"/><polygon fill="#800000" points="563.97,211.2098,567.2021,219.2368,575.8548,219.3408,572.6227,211.3137,563.97,211.2098" style="stroke: #800000; stroke-width: 1.2000000476837158;"/><path d="M868.638,421.247 C932.0748,463.7702 1033.008,531.4286 1091.8848,570.8949 " fill="none" style="stroke: #800000; stroke-width: 1.2000000476837158;"/><polygon fill="none" points="1096.6176,563.9546,1111.8756,584.2954,1087.2624,577.9094,1096.6176,563.9546" style="stroke: #800000; stroke-width: 1.2000000476837158;"/></g></svg>